<svg width="25px" height="18px" viewBox="0 0 25 18" version="1.1" xmlns="http://www.w3.org/2000/svg" xmlns:xlink="http://www.w3.org/1999/xlink">
    <g id="Page-1" stroke="none" stroke-width="1" fill="none" fill-rule="evenodd">
        <g id="mainpage" transform="translate(-716.000000, -634.000000)" fill="#FFFFFF">
            <g id="arrow" transform="translate(715.000000, 634.000000)">
                <g id="Group-3">
                    <g transform="translate(13.138462, 9.369231) scale(-1, 1) translate(-13.138462, -9.369231) translate(0.338462, 0.507692)">
                        <path d="M8.09275077,0.263483077 C8.44130462,-0.08704 8.99268923,-0.08704 9.34222769,0.263483077 C9.68093538,0.602190769 9.68093538,1.16342154 9.34222769,1.50212923 L3.00425846,7.84009846 L23.9194585,7.84009846 C24.4078277,7.84009846 24.8075815,8.22902154 24.8075815,8.71345231 C24.8075815,9.20182154 24.4078277,9.60157538 23.9194585,9.60157538 L3.00425846,9.60157538 L9.34222769,15.9287138 C9.68093538,16.2782523 9.68093538,16.8434215 9.34222769,17.1781908 C8.99268923,17.5287138 8.44130462,17.5287138 8.09275077,17.1781908 L0.254227692,9.33966769 C-0.08448,9.00194462 -0.08448,8.44071385 0.254227692,8.10200615 L8.09275077,0.263483077 Z" id="Fill-1"></path>
                    </g>
                </g>
            </g>
        </g>
    </g>
</svg>