<?xml version="1.0" encoding="utf-8"?>
<!-- Generator: Adobe Illustrator 16.0.0, SVG Export Plug-In . SVG Version: 6.00 Build 0)  -->
<!DOCTYPE svg PUBLIC "-//W3C//DTD SVG 1.1 Basic//EN" "http://www.w3.org/Graphics/SVG/1.1/DTD/svg11-basic.dtd">
<svg version="1.1" baseProfile="basic" id="Layer_1"
	 xmlns="http://www.w3.org/2000/svg" xmlns:xlink="http://www.w3.org/1999/xlink" x="0px" y="0px" width="192px" height="108px"
	 viewBox="0 0 192 108" xml:space="preserve">
<g>
	<g>
		<defs>
			<rect id="SVGID_1_" width="192" height="108"/>
		</defs>
		<clipPath id="SVGID_2_">
			<use xlink:href="#SVGID_1_"  overflow="visible"/>
		</clipPath>
		<g clip-path="url(#SVGID_2_)">
			<path fill="#081317" d="M24.488,17.973c-3.253,0.254-6.506,0.292-9.757-0.011c-1.665-0.022-3.33-0.043-4.995-0.065
				c-2.297,0.107-4.595,0.097-6.893,0.007c-1.652,0.005-3.304,0.001-4.955,0.016v0.858c0.021,0,0.042,0,0.064,0
				c13.125,0.026,26.251,0.013,39.377,0.009c0.655,0,1.31-0.025,1.965-0.038c-0.009-0.25-0.017-0.499-0.025-0.748
				C34.341,17.991,29.415,17.982,24.488,17.973z"/>
			<path fill="#081317" d="M190.175,20.768c1.312,0,2.625,0.008,3.938,0.008v-0.173c-3.019,0.004-6.038,0.003-9.062,0.165
				C186.758,20.768,188.466,20.767,190.175,20.768z"/>
			<path fill="#3A0D49" d="M132.668,54.022c-0.451-0.404-0.256-0.85-0.259-1.278c-0.013-1.39,0-1.391-2.492-1.391
				c-2.006,0-4.016-0.034-6.019,0.013c-1.387,0.033-1.973-0.25-1.8-0.993c-1.618,0-3.236,0.001-4.854,0.001
				c-0.199,0.347-0.732,0.326-1.238,0.326c-8.224,0-16.448,0-24.672-0.006c-0.267,0-0.621,0.059-0.868-0.328h26.762
				c0.001-0.158,0.001-0.317,0.001-0.475c-8.358-0.004-16.716-0.005-25.073-0.015c-0.637-0.001-1.32,0.097-1.892-0.158H1.691
				c-0.003-0.054-0.007-0.109-0.01-0.163c0.489,0,0.978,0,1.466,0c14.488,0.003,28.976,0.006,43.464,0.008
				c2.428,0,2.427,0,2.429-1.351c0-0.329,0.002-0.658,0.004-0.986c-0.61-0.191-1.282-0.122-1.93-0.122
				c-16.213-0.001-32.425,0.001-48.638,0.004c-0.216,0-0.411,0-0.588,0.001v1.303c0.645,0.003,1.29,0.003,1.934-0.013
				c0.792-0.02,1.051,0.135,1.047,0.562c-0.004,0.43-0.164,0.673-1.079,0.642c-0.633-0.021-1.267-0.029-1.901-0.035v1.306
				c0.244,0.003,0.524,0.003,0.847,0.003c2.518-0.001,5.036-0.003,7.554-0.009c6.596-0.015,13.191-0.032,19.787-0.047
				c-0.022-0.144-0.043-0.288-0.065-0.432c-7.775-0.005-15.551-0.006-23.326-0.027c-0.565-0.001-1.591,0.223-1.6-0.265
				c-0.006-0.356,1.005-0.208,1.561-0.209c7.22-0.01,14.44-0.009,21.661-0.001c0.706,0,1.616-0.146,1.715,0.497
				c8.528,0.001,17.057,0.003,25.585,0.002c12.062-0.001,24.123-0.005,36.185-0.008c0.404,0,0.809-0.009,1.211,0.006
				c0.325,0.013,0.805-0.037,0.78,0.246c-0.018,0.202-0.417,0.206-0.715,0.212c-0.454,0.009-0.908,0.007-1.362,0.007
				c-18.168-0.001-36.336-0.003-54.504-0.001c-0.704,0-1.407,0.036-2.111,0.056c-0.024,0.092-0.047,0.185-0.071,0.277
				c0.061,0.019,0.124,0.034,0.188,0.047c18.98-0.003,37.96-0.006,56.94-0.008c0.303,0,0.606-0.003,0.908,0.007
				c0.356,0.012,0.75,0.028,0.776,0.286c0.026,0.258-0.339,0.309-0.71,0.321c-0.403,0.013-0.807,0.011-1.211,0.011
				c-10.197-0.002-20.401,0.125-30.588-0.047c-8.729-0.147-17.449-0.054-26.172-0.116c0,0.157-0.001,0.313-0.001,0.47
				c8.018,0.009,16.035,0.022,24.052,0.024c11.297,0.002,22.594-0.005,33.891-0.006c0.351,0,0.702,0.028,1.053,0.043
				c13.093-0.002,26.185,0.004,39.276-0.021c1.36-0.002,2.04,0.165,1.669,0.961c0.186,0.458-0.146,0.681-1.018,0.663
				c-0.252-0.005-0.505,0.001-0.757,0.001c-12.42,0-24.84,0.002-37.26-0.005c-0.783,0-1.874,0.186-1.778-0.606
				c-0.046-0.02-0.092-0.041-0.136-0.062c-0.058,0.004-0.11,0.016-0.156,0.036c0.05,0.489-0.363,0.711-1.27,0.656
				c-0.15-0.009-0.303-0.002-0.454,0c-22.104,0.203-44.209,0.122-66.314,0.133c-0.698,0-1.418-0.075-2.085,0.112
				c0.568,0.332,1.317,0.222,2,0.222c9.89,0.007,19.78,0.004,29.67,0.013c0.699,0,1.607-0.161,1.785,0.463
				c3.628,0.018,7.255,0.036,10.883,0.054c8.163,0.196,16.332,0.123,24.498,0.128c0.889,0,1.321,0.173,1.264,0.673
				c-0.031,0.272-0.021,0.548,0.012,0.82c0.062,0.508-0.402,0.67-1.279,0.663c-1.968-0.015-3.936,0-5.903,0
				c-24.472,0.002-48.943,0.003-73.414,0.007c-0.705,0-1.41,0.027-2.115,0.041c2.397,0.187,4.809,0.036,7.211,0.085
				c0.552,0.011,1.103,0.024,1.654,0.037c4.224-0.003,8.458-0.111,12.667,0.022c3.769,0.12,7.529,0.091,11.292,0.113
				c0.947,0.005,1.558,0.151,1.718,0.686c0.619,0.152,1.279,0.114,1.928,0.114c4.415,0.001,8.829,0.001,13.243-0.004
				c0.595-0.001,1.209,0.056,1.769-0.117c0.2-0.149,0.41-0.12,0.623-0.009c9.528,0.273,19.062,0.047,28.593,0.124
				c0.614,0.006,1.304-0.126,1.878,0.191c-0.242,0.318-0.761,0.223-1.152,0.223c-15.74-0.011-31.48-0.028-47.221-0.045l-0.077,0.047
				c0.188,0.186,0.479,0.265,0.865,0.277c1.708,0.053,3.414,0.16,5.121,0.162c13.481,0.016,26.962,0.007,40.443,0.025
				c0.654,0.001,1.846-0.25,1.866,0.27c0.015,0.389-1.195,0.202-1.844,0.203c-16.864,0.02-33.728,0.022-50.591,0.041
				c-0.637,0.001-1.465-0.198-1.845,0.31c2.362,0.135,4.731,0.048,7.096,0.048c8.623-0.001,17.246-0.018,25.869-0.028
				c6.907-0.013,13.814-0.025,20.721-0.042c0.619-0.001,0.959,0.125,0.917,0.48c0.394,0.302,0.059,0.664,0.277,0.981
				c3.01-0.006,6.021-0.012,9.031-0.018c0.107-0.151,0.215-0.303,0.322-0.453c0.096-0.166,0.19-0.331,0.286-0.496
				c0.004-0.282,0.009-0.563,0.013-0.846c-0.001-0.144-0.001-0.288-0.002-0.432c0.003-0.292,0.006-0.584,0.009-0.875
				c-0.012-0.03-0.022-0.06-0.034-0.089c-0.097-0.013-0.19-0.029-0.282-0.05c-2.61-0.001-5.221,0.005-7.832-0.008
				c-0.561-0.002-1.255,0.125-1.539-0.31c-0.003-0.227-0.006-0.453-0.01-0.68c0.003-0.466,0.006-0.931,0.011-1.396
				c0.003-0.301,0.141-0.553,0.806-0.573c0.563-0.018,1.169-0.042,1.285,0.376c0.126,0.458,0.738,0.452,1.361,0.452
				c1.21,0,2.421,0,3.632,0.001c2.068,0.003,2.068,0.003,2.005,1.152c-0.003,0.216-0.006,0.431-0.009,0.646
				c0.107,0.001,0.215,0.002,0.321,0.002c0.293-0.201,0.222-0.446,0.272-0.677c0-0.367,0-0.734,0-1.103
				c0.481-0.288,1.125-0.194,1.71-0.195c3.988-0.007,7.977-0.003,11.965-0.003c4.321,0.001,8.642-0.004,12.962,0.004
				c2.664,0.005,2.519-0.177,2.499,1.364c-0.006,0.082-0.011,0.165-0.017,0.246c4.08,0.079,3.244,0.13,3.354-1.688
				c0.028-0.479-0.224-0.978,0.258-1.434C132.662,54.195,132.665,54.109,132.668,54.022z"/>
			<path fill="#1868A1" d="M113.565,103.29c-0.654,0.016-1.309,0.044-1.963,0.044c-17.321,0.004-34.642,0.009-51.962,0.005
				c-9.998-0.002-19.996-0.016-29.994-0.037c-0.599-0.001-1.469,0.187-1.714-0.275c-0.248-0.467-0.256-0.994,0.06-1.456
				c0.205-0.299,0.894-0.182,1.373-0.183c5.201-0.01,10.402-0.014,15.604-0.009c4.19,0.003,8.38,0.021,12.57,0.032
				c2.622-0.017,5.244-0.046,7.865-0.048c18.061-0.011,36.122-0.016,54.182-0.022c-0.001,0,0.051,0.008,0.051,0.008
				c-0.024-0.378-0.049-0.756-0.073-1.135c-9.341-0.008-18.683-0.017-28.024-0.027c-0.396,0-0.815,0.042-1.159-0.118
				c-0.059-0.024-0.12-0.049-0.182-0.072c-19.529,0.019-39.058,0.038-58.587,0.059c-0.656,0-1.312,0.009-1.967,0.015
				c0.086,0.445-0.279,0.608-1.106,0.667c-2.943,0.208-5.884,0.38-8.857,0.261c-0.147,0.034-0.294,0.069-0.441,0.104
				c-5.901,0.017-11.803,0.032-17.705,0.048c-0.591,0.001-1.183,0-1.775,0c-0.001,0.075-0.003,0.15-0.005,0.226h19.5
				c-0.001,0.095-0.002,0.189-0.003,0.284c-7.121,0-14.241,0-21.362,0v3.991c9.238-0.005,18.477-0.019,27.715,0.002
				c1.475,0.004,2.51-0.062,2.229-1.07c-0.113-0.407,0.302-0.61,1.071-0.59c0.251,0.007,0.504-0.002,0.757-0.002
				c27.456-0.008,54.912-0.016,82.368-0.021c0.503,0,1.006,0.027,1.508,0.043c1.979-0.426,4.04-0.109,6.057-0.195
				c0.015-0.159,0.029-0.318,0.045-0.477l-0.053,0.007C117.577,103.339,115.568,103.431,113.565,103.29z"/>
			<path fill="#FB14DF" d="M89.09,52.171c-11.297,0.001-22.594,0.008-33.891,0.006c-8.018-0.001-16.035-0.015-24.052-0.024
				c-10.961,0.011-21.923,0.021-32.884,0.033c-0.125,0-0.25,0.001-0.374,0.003v0.954c25.596,0.009,51.193,0.017,76.79,0.026
				c5.102,0.002,10.204,0.008,15.306,0.012c0.046-0.02,0.098-0.032,0.156-0.036c0.001-0.311,0.002-0.621,0.004-0.931
				C89.792,52.199,89.441,52.171,89.09,52.171z"/>
			<path fill="#31FBFD" d="M44.194,88.051c-1.767-0.001-3.534-0.009-5.301-0.008c-13.668,0.005-27.336,0.011-41.004,0.016v1.278
				c8.258,0.008,16.516,0.017,24.773,0.024c7.895,0.003,15.79,0.006,23.685,0.009c0.063-0.018,0.128-0.032,0.195-0.044
				C46.569,88.053,46.569,88.053,44.194,88.051z"/>
			<path fill="#31FBFD" d="M85.291,81.094c-6.602,0.014-13.204,0.022-19.805,0.044c-6.744,0.021-13.476-0.315-20.311-0.127
				c0.188-0.286,0.833-0.248,0.781-0.526c-0.903-0.021-1.673-0.301-2.628-0.3c-15.146,0.021-30.293,0.015-45.44,0.014v1.11
				c0.184,0.002,0.369,0.004,0.553,0.004c28.263-0.007,56.527-0.015,84.79-0.02c0.704,0,1.408,0.032,2.112,0.049
				C85.326,81.26,85.308,81.177,85.291,81.094z"/>
			<path fill="#769097" d="M59.266,22.295c-20.459-0.003-40.919-0.006-61.378-0.009v0.643c2.549-0.028,5.098-0.085,7.646,0.12
				c1.854,0.149,3.714-0.132,5.57-0.123c4.077,0.02,8.156,0.182,12.229,0.132c11.547-0.143,23.094,0.003,34.64-0.064
				c0.503-0.003,1.007-0.024,1.511-0.037C59.412,22.735,59.339,22.516,59.266,22.295z"/>
			<path fill="#3A0D49" d="M47.997,6.973C33.145,6.968,18.293,6.967,3.442,6.968c-1.852,0-3.703,0.009-5.554,0.018v1.263
				c8.85-0.005,17.699-0.011,26.549-0.016c-0.175-0.75,0.417-0.978,1.804-0.972c7.866,0.032,15.733,0.015,23.599,0.015
				c0.033-0.067,0.065-0.134,0.097-0.201C49.314,6.913,48.646,6.973,47.997,6.973z"/>
			<path fill="#29A4CE" d="M21.751,85.564c-1.154-0.085-2.625,0.389-3.304-0.571c-0.063-0.09-0.634-0.102-0.97-0.103
				c-1.393-0.007-2.787,0.004-4.18,0.009c-0.196,0.149-0.488,0.189-0.797,0.189c-4.871-0.005-9.742-0.011-14.613-0.018v1.509
				c0.653,0.014,1.284,0.097,1.852,0.415c0.258,0.145,0.968,0.064,1.471,0.065c5.807,0.012,11.613,0.02,17.419,0.029
				c0.053-0.028,0.106-0.057,0.16-0.086c-0.182-1.205-0.182-1.207,1.977-1.28C21.122,85.712,21.47,85.703,21.751,85.564
				L21.751,85.564z"/>
			<path fill="#C2C2C2" d="M39.041,73.061c-0.398,0.024-0.806,0.004-1.209,0.004c-11.492,0.003-22.984,0.006-34.477,0.012
				c-0.809,0-1.694,0.082-1.683-0.594c-0.897-0.025-1.794-0.069-2.692-0.072c-0.425-0.002-0.786-0.003-1.092,0.002v1.551
				c1.246,0.004,2.492,0.009,3.738,0.013c0.276-0.322,0.826-0.267,1.314-0.267c8.965-0.002,17.93,0,26.895,0.001
				c0.611,0,1.242-0.021,1.478,0.394c3.072-0.029,6.144-0.06,9.215-0.09C40.892,73.301,40.437,72.973,39.041,73.061z"/>
			<path fill="#851070" d="M39.9,0.721C25.91,0.716,11.92,0.725-2.07,0.686c-0.015,0-0.028,0-0.042,0v0.994
				C1.757,1.71,5.633,1.802,9.483,1.672C17.3,1.409,25.112,1.643,32.924,1.543c0.817-0.011,1.733,0.136,2.096-0.508
				c0.122-0.217,0.712-0.144,1.106-0.148c1.261-0.014,2.522-0.021,3.784-0.03C39.925,0.812,39.922,0.766,39.9,0.721z"/>
			<path fill="#3A0D49" d="M39.929,0.524c0.028-0.106,0.055-0.212,0.083-0.318c7.821,0,15.642,0.001,23.462-0.007
				c0.652,0,1.507,0.146,1.621-0.452c3.422-0.008,6.844-0.016,10.266-0.024c0.145,0.628,1.047,0.476,1.748,0.477
				c7.79,0.008,15.579,0.006,23.369,0.006c0.027,0.106,0.056,0.213,0.084,0.32C80.351,0.525,60.14,0.524,39.929,0.524z"/>
			<path fill="#29A4CE" d="M22.652,30.665c-0.631-0.001-1.331,0.111-1.85-0.209c-4.248-0.005-8.496-0.011-12.744-0.017
				c-3.39,0.019-6.78,0.037-10.169,0.056v1.165c3.277,0.046,6.555,0.036,9.833-0.022c0.009-0.526,0.515-0.721,1.454-0.677
				c0.602,0.028,1.21,0.006,1.816,0.009c8.222,0.047,16.434-0.308,24.658-0.182c0.144,0.002,0.289-0.026,0.429-0.118
				C31.603,30.67,27.127,30.674,22.652,30.665z"/>
			<path fill="#769097" d="M-2.112,20.274v1.616c2.284,0.007,4.568,0.015,6.853,0.021c0.145-0.467,0.797-0.471,1.464-0.485
				c1.033-0.022,2.075,0.073,3.098-0.074c0.02-0.34,0.04-0.68,0.06-1.021C5.539,20.2,1.713,20.252-2.112,20.274z"/>
			<path fill="#164B66" d="M7.931,90.637c-3.347,0.021-6.695,0.007-10.043-0.001v0.685c3.814-0.039,7.615,0.325,11.434,0.173
				C9.639,90.834,9.135,90.63,7.931,90.637z"/>
			<path fill="#31FBFD" d="M1.211,87.061C0.708,87.06-0.002,87.14-0.26,86.995c-0.568-0.318-1.199-0.401-1.852-0.415v0.761
				c6.534,0,13.069,0.001,19.603-0.004c0.42,0,0.947,0.088,1.139-0.247C12.824,87.08,7.018,87.072,1.211,87.061z"/>
			<path fill="#164B66" d="M39.308,20.12c-13.807-0.001-27.613-0.003-41.42-0.005v0.159c3.825-0.021,7.651-0.074,11.475,0.058
				c9.345-0.003,18.691-0.006,28.036-0.013c0.655,0,1.31-0.025,1.964-0.039C39.355,20.226,39.336,20.172,39.308,20.12z"/>
			<path fill="#141E25" d="M194.112,18.217c-1.968-0.066-3.936-0.142-5.91-0.074c-0.674,0.023-1.509-0.101-1.542,0.501
				c2.483,0.001,4.968,0.003,7.452,0.004V18.217z"/>
			<path fill="#19313F" d="M176.91,87.696c-1.875,0.356-3.814,0.084-5.717,0.173c0-0.163-0.001-0.327-0.001-0.49
				c1.641,0,3.282,0,4.924,0c-0.002-0.057-0.004-0.113-0.006-0.169c-1.641,0-3.282,0-4.923,0c0-0.493,0-0.986,0.001-1.479
				c1.922,0,3.845,0,5.768,0c-0.007,0.496-0.013,0.991-0.02,1.487c0.002,0.053,0.003,0.105,0.003,0.158
				C176.93,87.482,176.92,87.59,176.91,87.696z"/>
			<path fill="#19313F" d="M184.534,80.144c0,0.437-0.001,0.873-0.001,1.31c-2.541,0-5.082-0.001-7.623-0.001
				c0.011-0.436,0.021-0.871,0.032-1.308c2.528-0.002,5.057-0.004,7.585-0.006L184.534,80.144z"/>
			<path fill="#19313F" d="M167.867,98.229c-0.012-0.934-0.023-1.868-0.035-2.803l0.012,0.009c1.015,0.001,2.03,0.001,3.045,0.002
				c-0.003,0.623-0.082,1.25,0.01,1.869c0.104,0.706-0.344,1.022-1.684,0.93C168.772,98.204,168.317,98.229,167.867,98.229z"/>
			<path fill="#081317" d="M170.889,95.437c-1.015-0.001-2.03-0.001-3.045-0.002c-0.001-0.821-0.003-1.644-0.004-2.465
				c3.497,0.017,3.001-0.201,3.044,1.65C170.89,94.893,170.888,95.164,170.889,95.437z"/>
			<path fill="#19313F" d="M176.937,83.768c0.002-0.274,0.004-0.55,0.005-0.824c2.556,0.048,5.183-0.238,7.589,0.49
				c0,0.107-0.001,0.215-0.002,0.322C181.998,83.76,179.467,83.764,176.937,83.768z"/>
			<path fill="#081317" d="M150.585,87.381c-0.009,0.107-0.017,0.215-0.025,0.321c-0.104,0.07-0.207,0.141-0.312,0.211
				c-3.913-0.307-7.869-0.144-11.804-0.223c-0.004-0.11-0.007-0.221-0.01-0.332c2.926,0,5.852,0,8.777,0
				C148.336,87.366,149.461,87.374,150.585,87.381z"/>
			<path fill="#19313F" d="M164.193,98.224c-0.001-0.269-0.002-0.538-0.003-0.807c0.111-0.001,0.222-0.002,0.333-0.003
				c-0.002,0.271-0.004,0.543-0.006,0.813C164.409,98.227,164.302,98.226,164.193,98.224z"/>
			<path fill="#141E25" d="M113.574,57.081c0.01-0.431,0.02-0.861,0.029-1.292c4.321,0.001,8.642-0.004,12.962,0.004
				c2.664,0.005,2.519-0.177,2.499,1.364c-0.602-0.012-1.202-0.03-1.803-0.032C122.699,57.108,118.137,57.095,113.574,57.081z"/>
			<path fill="#424242" d="M99.929,55.987c1.606-0.007,3.213-0.01,4.819-0.023c0.746-0.007,1.272,0.08,1.273,0.576
				s-0.527,0.581-1.272,0.574c-1.606-0.015-3.213-0.017-4.82-0.023C99.929,56.723,99.929,56.355,99.929,55.987z"/>
			<path fill="#081317" d="M119.661,107.115c12.624,0.001,25.248,0.003,37.872,0.005c0.007,0.218,0.015,0.436,0.022,0.653
				c-12.063,0-24.128,0-36.192,0C120.506,107.773,119.531,107.865,119.661,107.115z"/>
			<path fill="#3A0D49" d="M42.262,66.789c-0.882,0.396-0.828,0.719,0.283,0.919c0.422,0.075,0.885,0.1,1.333,0.115
				c3.782,0.129,7.54-0.176,11.314-0.192c0.759-0.003,1.013-0.176,1.101-0.589c0.256-1.214,0.298-1.212,2.475-1.212
				c7.217,0.001,14.435,0,21.652,0.007c0.497,0.001,1.045-0.006,1.478,0.101c0.572,0.141,0.613,0.515,0.558,0.796
				c-0.067,0.342-0.7,0.243-1.114,0.243c-5.451,0.008-10.902,0.005-16.353,0.006c-0.403,0-0.808,0.001-1.21,0.015
				c-0.386,0.013-0.706,0.09-0.678,0.342c0.023,0.204,0.311,0.265,0.63,0.279c0.301,0.014,0.605,0.015,0.908,0.015
				c11.558,0.003,23.116,0.004,34.673,0.006c-0.002,0.113-0.005,0.227-0.006,0.34c-17.673,0.082-35.347-0.157-53.02,0.145
				c-4.631,0.079-9.271-0.218-13.917-0.149c-1.918,0.028-3.839-0.002-5.759-0.006c-1.461-0.13-2.917-0.334-4.386-0.371
				c-2.062-0.053-4.135,0.03-6.203,0.027c-0.585-0.001-1.507,0.154-1.468-0.416c0.035-0.502,0.885-0.348,1.428-0.349
				c6.363-0.012,12.727,0.001,19.09-0.02c2.113-0.007,4.235,0.111,6.341-0.077C41.694,66.771,41.978,66.78,42.262,66.789z"/>
			<path fill="#24071D" d="M26.61,67.968c1.919,0.004,3.841,0.034,5.759,0.006c4.646-0.068,9.286,0.229,13.917,0.149
				c17.673-0.302,35.347-0.062,53.02-0.145c0.016,0.326,0.032,0.651,0.049,0.978c-0.656-0.011-1.312-0.03-1.967-0.03
				c-17.981,0-35.962-0.001-53.943,0.005c-5.606,0.002-11.211,0.021-16.817,0.033l0.007-0.051c-0.017-0.311-0.033-0.621-0.049-0.932
				L26.61,67.968z"/>
			<path fill="#19313F" d="M180.853,76.362c0.905-0.001,1.812-0.003,2.718,0.001c0.5,0.002,0.92,0.084,0.923,0.406
				c0.003,0.323-0.41,0.41-0.914,0.411c-1.913,0.002-3.825,0.003-5.738-0.003c-0.519-0.002-0.878-0.123-0.841-0.444
				c0.032-0.281,0.395-0.364,0.832-0.367C178.839,76.358,179.846,76.363,180.853,76.362z"/>
			<path fill="#081317" d="M90.259,62.751c3.012-0.16,6.032-0.025,9.048-0.071c0.418,0.618-0.329,0.674-1.138,0.68
				c-1.939,0.012-3.88,0.015-5.82,0.021C91.531,63.288,90.223,63.676,90.259,62.751z"/>
			<path fill="#081317" d="M99.948,72.414c1.213,0,2.427,0.001,3.641,0.001l-0.006-0.003c0,0.327-0.001,0.654-0.001,0.981
				l-0.013,0.026c-1.358-0.017-2.716-0.033-4.073-0.05c-0.033-0.1-0.066-0.198-0.099-0.297c0.003-0.224,0.007-0.447,0.01-0.671
				C99.588,72.406,99.768,72.41,99.948,72.414z"/>
			<path fill="#141E25" d="M138.775,96.477c-0.703-0.019-1.406-0.054-2.109-0.054c-19.515-0.004-39.029-0.003-58.544-0.006
				c-0.705,0-1.41-0.022-2.115-0.034c0.002-0.198,0.005-0.396,0.007-0.596c6.285-0.011,12.569-0.017,18.854-0.038
				c0.612-0.002,1.335,0.146,1.791-0.238c0.99-0.001,1.98-0.002,2.972-0.002c0.017,0.093,0.032,0.186,0.049,0.279
				c0.091,0.222,0.38,0.307,0.764,0.308c1.889,0.003,3.776,0.003,5.665,0.002c0.376,0,0.68-0.072,0.829-0.276
				c5.341-0.018,10.683-0.044,16.024-0.053c6.049-0.009,12.098-0.001,18.146-0.003c0.825,0,1.71-0.058,1.588,0.634
				C141.389,96.426,140.082,96.451,138.775,96.477z"/>
			<path fill="#3A0D49" d="M150.263,100.045c-10.194-0.003-20.39-0.007-30.584-0.01c-0.032-0.263-0.063-0.524-0.096-0.786
				c0.28-0.56,1.135-0.351,1.757-0.351c9.657-0.007,19.314,0.003,28.972,0.01l0.021,0.012
				C150.31,99.295,150.286,99.67,150.263,100.045z"/>
			<path fill="#164B66" d="M115.812,18.799c7.664-0.003,15.329-0.005,22.993-0.011c0.757,0,1.525-0.042,2.106,0.306
				c7.061,0.009,14.121,0.018,21.181,0.026l0.016,0.009c0.005,0.31,0.01,0.619,0.015,0.928c-0.654,0.015-1.308,0.042-1.962,0.043
				c-14.063,0.009-28.127,0.014-42.191,0.024c-0.646,0-1.315-0.07-1.927,0.117c-0.021,0.066-0.04,0.132-0.06,0.198
				c-0.019,0.116-0.036,0.231-0.055,0.347l-0.048-0.003c-3.274-0.006-6.551,0.012-9.823-0.033c-1.192-0.016-1.698,0.193-1.549,0.836
				c-0.6,0-1.198,0.001-1.798,0.001c-0.013-0.381-0.025-0.763-0.038-1.145c0.005-0.057,0.01-0.114,0.016-0.17l-0.015,0.008
				c3.414,0.006,6.827,0.015,10.24,0.018C115.702,20.301,115.702,20.297,115.812,18.799z"/>
			<path fill="#141E25" d="M175.764,22.433c-0.057,0.544-0.812,0.453-1.451,0.469c-3.053,0.261-6.1,0.124-9.147-0.032
				c-0.007-0.148-0.013-0.297-0.019-0.446c-0.003-0.06-0.006-0.12-0.009-0.18l-0.018,0.007c0.113,0.005,0.227,0.01,0.34,0.016
				c0.532,0.219,1.154,0.141,1.743,0.144C170.057,22.424,172.91,22.427,175.764,22.433z"/>
			<path fill="#424242" d="M186.661,13.567c-0.001,0.15-0.002,0.3-0.003,0.45c-0.105,0.004-0.211,0.008-0.316,0.012h0.007
				c-0.46-0.231-1.033-0.166-1.571-0.168c-1.65-0.006-3.3,0.003-4.95-0.003c-0.53-0.002-1.147,0.068-1.344-0.337
				c2.702,0.002,5.404,0.003,8.106,0.005L186.661,13.567z"/>
			<path fill="#081317" d="M177.25,20.432c-3.94-0.004-7.88-0.008-11.819-0.011c0.009-0.041,0.023-0.08,0.046-0.119
				c3.916-0.002,7.831-0.005,11.747-0.008C177.239,20.34,177.248,20.386,177.25,20.432z"/>
			<path fill="#424242" d="M59.548,12.536c0.027-0.149,0.053-0.298,0.08-0.447c7.521-0.013,15.041-0.025,22.562-0.038
				c1.868-0.003,3.736-0.005,5.604-0.007c0.018,0.027,0.045,0.051,0.082,0.071c-0.009,0.146-0.018,0.292-0.027,0.438l-0.008-0.006
				C78.41,12.543,68.979,12.54,59.548,12.536z"/>
			<path fill="#31FBFD" d="M31.312,74.104c3.072-0.029,6.144-0.06,9.215-0.09c-0.21,0.632,0.22,0.873,1.454,0.869
				c9.492-0.031,18.985-0.033,28.479-0.044c9.61,0.094,19.218,0.112,28.822-0.113l0.058,0.014c0.017,0.159,0.034,0.318,0.052,0.478
				c-0.047,0.037-0.084,0.076-0.11,0.119c-18.647-0.268-37.298-0.109-55.947-0.123c-3.259-0.002-6.523,0.192-9.795,0.161
				C31.172,75.353,31.172,75.368,31.312,74.104z"/>
			<path fill="#29A4CE" d="M99.282,74.726c-9.604,0.226-19.212,0.207-28.822,0.113c-0.269-0.4-0.911-0.273-1.423-0.276
				c-2.217-0.014-4.434-0.002-6.65-0.014c-0.417-0.002-1.042,0.078-1.07-0.275c-0.027-0.329,0.553-0.355,1.003-0.35
				c2.816,0.032,5.638-0.113,8.45,0.082c0.597,0.041,1.205,0.045,1.808,0.046c8.917,0.003,17.835,0.004,26.753,0.004
				C99.314,74.279,99.299,74.503,99.282,74.726z"/>
			<path fill="#C2C2C2" d="M99.397,73.073c0.032,0.099,0.065,0.197,0.099,0.296c-0.053,0.107-0.106,0.214-0.159,0.321
				c-1.66,0.02-3.32,0.054-4.98,0.055c-7.208,0.006-14.417,0.002-21.625,0.001c-0.454,0-0.908,0-1.36-0.013
				c-0.367-0.011-0.737-0.061-0.767-0.304c-0.037-0.305,0.402-0.334,0.817-0.356c0.15-0.008,0.302-0.006,0.453-0.006
				C81.049,73.069,90.223,73.07,99.397,73.073z"/>
			<path fill="#424242" d="M87.834,8.748c-0.002,0.394-0.004,0.788-0.005,1.182c-9.087,0.01-18.174,0.02-27.261,0.028
				c-0.354,0-0.712-0.007-0.974-0.17c0.01-0.348,0.02-0.696,0.03-1.043C69.028,8.746,78.431,8.747,87.834,8.748z"/>
			<path fill="#424242" d="M132.69,12.557c0.081-0.027,0.169-0.044,0.263-0.053c4.758,0.012,9.517,0.023,14.276,0.035
				c0.001,0.336,0.003,0.671,0.004,1.007c-4.832-0.004-9.665-0.008-14.497-0.013l-0.037-0.002
				C132.696,13.207,132.693,12.882,132.69,12.557z"/>
			<path fill="#19313F" d="M65.618,93.964c0.184,0.211,0.092,0.427,0.033,0.641c-9.144,0.005-18.287,0.007-27.43,0.014
				c-1.137,0.001-2.068-0.361-3.127-0.495C45.263,93.773,55.444,94.059,65.618,93.964z"/>
			<path fill="#24071D" d="M49.84,7.276c0.193,0.327,0.155,0.657,0.043,0.988c-8.451,0.006-16.901,0.012-25.352,0.018l-0.094-0.049
				c-0.176-0.75,0.417-0.978,1.804-0.972C34.107,7.293,41.974,7.276,49.84,7.276z"/>
			<path fill="#141E25" d="M120.854,39.507c0.06-0.048,0.06-0.095,0-0.143c-0.02-0.392-0.04-0.784-0.06-1.175
				c0.385-0.283,1.419,0.046,1.543-0.482c0.013-0.275,0.026-0.55,0.04-0.825c7.074,0.015,14.147,0.029,21.222,0.043
				c0.506,0.164,1.066,0.119,1.61,0.12c2.499,0.007,4.998,0.008,7.497,0.011c0.025,0.161,0.051,0.321,0.076,0.481
				c-0.562,0.267-1.247,0.176-1.887,0.177c-5.757,0.008-11.514,0.005-17.271,0.011c-0.596,0.001-1.438-0.145-1.239,0.479
				l0.007-0.004c-0.1,0.003-0.199,0.01-0.297,0.02c-2.828-0.005-5.657,0.011-8.484-0.024c-1.214-0.015-1.354,0.335-1.18,0.832
				c0.153,0.437,0.85,0.313,1.357,0.315c2.711,0.012,5.422,0.006,8.134,0.006c-2.725,0.174-5.445,0.187-8.165,0.167
				c-0.896-0.006-1.51,0.082-1.375,0.665l-0.078,0.025c-0.472-0.014-0.942-0.028-1.413-0.043
				C120.88,39.945,120.867,39.726,120.854,39.507z"/>
			<path fill="#29A4CE" d="M59.46,29.983c-7.351,0-14.701,0-22.052,0c-0.001,0.059-0.002,0.118-0.004,0.176c1.544,0,3.088,0,4.632,0
				c-0.001,0.087-0.002,0.174-0.003,0.261c-6.986,0-13.972,0-20.958,0c0.033-0.43,0.057-0.857-1.109-0.794
				c-0.021-0.052-0.05-0.103-0.086-0.152c0.032-0.046,0.058-0.093,0.078-0.141c1.071,0.034,1.222-0.327,1.146-0.786
				c5.256-0.008,10.513-0.017,15.769-0.025c1.78,0.005,3.561,0.01,5.34,0.015c-0.054,0.765,0.59,0.985,2.004,0.969
				c5.113-0.057,10.229-0.035,15.345-0.043c0.031,0.172,0.062,0.344,0.092,0.516C59.589,29.979,59.525,29.981,59.46,29.983z"/>
			<path fill="#1868A1" d="M19.966,29.626c1.167-0.062,1.142,0.364,1.109,0.794c-0.088,0.019-0.18,0.03-0.273,0.035
				c-4.248-0.005-8.496-0.011-12.744-0.017c0.013-0.153,0.027-0.306,0.041-0.458l0.007-0.004c3.453-0.003,6.907,0,10.36-0.017
				c0.491-0.002,1.154,0.151,1.389-0.274C19.892,29.666,19.929,29.646,19.966,29.626z"/>
			<path fill="#24071D" d="M165.431,24.527c2.931,0.005,5.86,0.011,8.79,0.017c-0.014,0.055-0.026,0.11-0.04,0.166
				c-2.403,0.006-4.807,0.017-7.209,0.015C166.439,24.724,165.853,24.802,165.431,24.527z"/>
			<path fill="#3A0D49" d="M191.7-0.12c-23.982-0.001-47.965-0.003-71.946-0.005c-0.021-0.054-0.014-0.106,0.021-0.158
				c14.22-0.001,28.438-0.006,42.655-0.003c9.781,0.001,19.562,0.012,29.345,0.019C191.767-0.215,191.742-0.167,191.7-0.12z"/>
			<path fill="#31FBFD" d="M103.98,43.129c-0.014-0.158-0.027-0.316-0.041-0.474c5.841,0,11.682,0,17.587,0
				c-0.745,0.468-1.656,0.454-2.591,0.454C113.95,43.107,108.965,43.121,103.98,43.129z"/>
			<path fill="#141E25" d="M163.902,83.766c2.431-0.003,4.862-0.006,7.293-0.009c1.537,0,3.073,0,4.61,0
				c0.002,0.057,0.004,0.112,0.006,0.169c-1.539,0-3.077,0-4.616,0c-2.431-0.003-4.861-0.006-7.293-0.009
				C163.902,83.866,163.902,83.816,163.902,83.766z"/>
			<path fill="#424242" d="M163.795,79.348c0.013,0.26,0.026,0.52,0.038,0.779c-4.488-0.001-8.975-0.002-13.461-0.004
				c0.015-0.257,0.028-0.514,0.044-0.771C154.876,79.351,159.336,79.35,163.795,79.348z"/>
			<path fill="#3A0D49" d="M157.568,97.419c1.162-0.002,2.329,0.032,3.484-0.016c1.358-0.058,1.888,0.226,1.612,0.948
				c-1.706,0.015-3.412,0.028-5.118,0.043l0.002,0.001C157.556,98.07,157.562,97.744,157.568,97.419z"/>
			<path fill="#19313F" d="M171.196,85.735c-2.363-0.001-4.727-0.003-7.089-0.002c-2.005,0-2.005,0.002-2.008,1.067
				c-0.001,0.136,0.002,0.272,0.004,0.409c-3.844-0.002-7.688-0.004-11.532-0.005c-0.101-0.71-0.202-1.42-0.304-2.13
				c0.108-0.001,0.216-0.002,0.324-0.003c6.868,0,13.736,0,20.604,0C171.196,85.293,171.196,85.514,171.196,85.735z"/>
			<path fill="#24071D" d="M185.084,58.112c-17.455,0-34.908,0-52.362,0c-0.112-0.443,0.19-0.687,1.069-0.657
				c0.201,0.007,0.403-0.001,0.605-0.001c16.34,0,32.68,0,49.02,0.002C184.246,57.456,185.278,57.333,185.084,58.112z"/>
			<path fill="#24071D" d="M132.708,58.9c5.854,0.006,11.708,0.023,17.562,0.007c1.359-0.005,2.501-0.02,1.928,1.018
				c-0.074,0.134,0.135,0.314,0.213,0.473c-5.873,0.003-11.746,0.007-17.619,0.009c-2.118,0.001-2.118-0.001-2.102-1.179
				C132.691,59.118,132.702,59.01,132.708,58.9z"/>
			<path fill="#141E25" d="M130.867,77.175c0.003,0.551,0.005,1.103,0.007,1.653l-0.028,0.005c-3.125-0.01-6.251-0.021-9.376-0.03
				c0.082-1.776-0.495-1.609,2.948-1.618C126.567,77.179,128.718,77.178,130.867,77.175z"/>
			<path fill="#24071D" d="M156.95,69.453c0.002-0.654,0.034-1.309-0.006-1.963c-0.03-0.494,0.353-0.68,1.25-0.671
				c1.908,0.019,3.818,0.004,5.728,0.003l-0.011-0.006c0.002,0.878,0.005,1.757,0.008,2.636c-2.327-0.002-4.653-0.004-6.979-0.005
				L156.95,69.453z"/>
			<path fill="#29A4CE" d="M75.993,95.454c-0.017-0.041-0.021-0.082-0.01-0.125c6.347-0.007,12.695-0.03,19.042-0.006
				c1.253,0.004,1.78-0.212,1.631-0.884c2.248-0.187,4.531-0.043,6.768-0.171c2.175-0.125,3.952,0.479,6.184,0.619
				c-0.839,0.413-1.959,0.019-2.46,0.51c-2.506,0.037-5.012,0.074-7.517,0.111c-0.991,0-1.981,0.001-2.972,0.001
				c-0.753-0.009-1.507-0.025-2.26-0.026C88.264,95.472,82.128,95.464,75.993,95.454z"/>
			<path fill="#081317" d="M130.893,17.018c0.002-0.178,0.004-0.356,0.006-0.535c1.814-0.001,3.628,0,5.442-0.003
				c0.648-0.001,1.25,0.022,1.205,0.505C135.328,16.996,133.11,17.007,130.893,17.018z"/>
			<path fill="#3A0D49" d="M59.699,20.461c-0.073-0.114-0.146-0.228-0.218-0.341c0.091-0.051,0.182-0.102,0.272-0.153
				c2.84-0.003,5.68-0.006,8.52-0.009c1.284,0.411,2.563,0.053,3.844-0.008c4.528,0.001,9.055,0.002,13.583,0.003l0.114,0.021
				c-0.023,0.139-0.047,0.277-0.071,0.416c-0.02,0.032-0.028,0.064-0.024,0.098c-5.563-0.167-11.139-0.001-16.709-0.205
				c-1.488-0.055-3.083,0.125-4.638,0.135C62.814,20.428,61.256,20.446,59.699,20.461z"/>
			<path fill="#24071D" d="M165.085,20.268c-0.251-0.002-0.503-0.006-0.755-0.007c-1.935-0.009-1.935-0.009-1.913-1.106
				c0.903-0.009,1.807-0.019,2.71-0.029C165.113,19.506,165.1,19.887,165.085,20.268z"/>
			<path fill="#164B66" d="M165.112,21.598c-0.259,0.522-1.061,0.329-1.639,0.33c-5.455,0.015-10.91,0.004-16.365,0.017
				c-0.593,0.001-1.366-0.174-1.688,0.309l0.015-0.004c-0.821,0.013-1.644,0.026-2.466,0.04c-2.52,0.031-5.039,0.062-7.559,0.093
				c-0.336-0.045-0.672-0.13-1.007-0.13c-6.034,0-12.067,0.009-18.101,0.017c-0.106-0.068-0.213-0.136-0.318-0.203
				c4.473,0,8.946,0.003,13.419-0.002c0.592,0,1.216,0.076,1.748-0.147l0.02-0.011c1.424,0.002,2.848,0.003,4.271,0.005
				l-0.017,0.001c0.32,0.162,0.719,0.169,1.122,0.169c2.496,0,4.992,0.002,7.488,0.001c0.399,0,0.807,0.004,1.099-0.186
				c0.01-0.046,0.015-0.092,0.016-0.138c0.09-0.055,0.18-0.11,0.269-0.166l0.017-0.007c6.562,0.004,13.123,0.009,19.685,0.013
				L165.112,21.598z"/>
			<path fill="#24071D" d="M69.045,18.622c5.543,0.005,11.087,0.01,16.631,0.016c0.016,0.049,0.014,0.098-0.007,0.147
				c-5.542-0.013-11.084-0.026-16.626-0.039C69.045,18.704,69.046,18.663,69.045,18.622z"/>
			<path fill="#424242" d="M61.095,7.073c0.192-1.428,0.192-1.428,2.946-1.428c4.141,0,8.281,0,12.421,0
				c2.753,0,2.753,0,2.934,1.435C73.295,7.078,67.195,7.075,61.095,7.073z"/>
			<path fill="#29A4CE" d="M47.581,36.119c14.388-0.096,28.776-0.072,43.165-0.034c0.756,0.002,1.512-0.021,2.268-0.032
				c0.792,0.008,1.584,0.017,2.376,0.025l-0.032-0.007c0.002,0.277,0.004,0.554,0.006,0.831c-6.816-0.005-13.632-0.01-20.448-0.014
				c-1.985-0.686-4.207-0.472-6.366-0.49c-0.648-0.006-1.319-0.052-1.759,0.321c-0.211,0.179-0.613,0.17-0.967,0.169
				c-6.109-0.002-12.219-0.006-18.329-0.009C47.524,36.626,47.553,36.373,47.581,36.119z"/>
			<path fill="#164B66" d="M147.491,7.122c-4.829-0.009-9.658-0.019-14.486-0.028c0.269-0.469,1-0.285,1.534-0.287
				c4.337-0.019,8.675-0.015,13.013-0.017C147.531,6.9,147.511,7.011,147.491,7.122z"/>
			<path fill="#141E25" d="M59.665,31.629c-0.01-0.166-0.02-0.332-0.029-0.497l-0.01-0.02c14.348,0.008,28.696,0.016,43.044,0.024
				c-0.014,0.164-0.027,0.329-0.041,0.493C88.308,31.63,73.986,31.63,59.665,31.629z"/>
			<path fill="#1868A1" d="M102.67,31.137c-14.348-0.008-28.696-0.016-43.044-0.024c0.002-0.16,0.004-0.319,0.005-0.479
				c14.335,0.002,28.671,0.003,43.007,0.005c0.019,0.162,0.038,0.323,0.057,0.485L102.67,31.137z"/>
			<path fill="#769097" d="M65.45,22.486c-0.04,0.464-0.633,0.541-1.317,0.554C64.166,22.571,64.7,22.453,65.45,22.486z"/>
			<path fill="#24071D" d="M155.43,46.27c3.511,0,7.021,0,10.53,0c0,0.068,0,0.137,0,0.205c-3.512,0-7.023,0-10.536,0
				C155.426,46.406,155.428,46.338,155.43,46.27z"/>
			<path fill="#19313F" d="M181.133,47.713c0.023,0.065,0.047,0.131,0.07,0.196c-1.826-0.013-3.652-0.026-5.479-0.04
				C177.501,47.547,179.334,47.81,181.133,47.713z"/>
			<path fill="#164B66" d="M159.879,39.306c0.369-0.432,1.101-0.302,1.715-0.306c3.803-0.027,7.605-0.04,11.408-0.058
				c0.01,0.029,0.013,0.059,0.011,0.089c0.005,0.103,0.011,0.206,0.016,0.31l0.018,0.043c-4.349-0.005-8.696-0.01-13.044-0.015
				C159.961,39.347,159.92,39.326,159.879,39.306z"/>
			<path fill="#19313F" d="M166.371,25.539c0.539-0.272,1.179-0.145,1.789-0.135C167.601,25.592,166.968,25.493,166.371,25.539z"/>
			<path fill="#C2C2C2" d="M59.307,17.782c0.013,0.058,0.026,0.116,0.04,0.173c-1.494,0-2.988,0-4.481,0
				C56.31,17.622,57.834,17.899,59.307,17.782z"/>
			<path fill="#C2C2C2" d="M36.873,28.523c0.161-0.168,0.456-0.226,0.761-0.211c2.422,0.116,4.807-0.303,7.202-0.205
				c4.185,0.172,8.288-0.505,12.444-0.311c5.534,0.257,11.072,0.121,16.607,0.175c0.347,0.003,0.691,0.061,1.036,0.092
				c0.517,0.154,1.082,0.094,1.627,0.095c3.771,0.01,7.541,0.011,11.312,0.015c0.438,0.6-0.542,0.307-0.778,0.309
				c-4.088,0.033-8.176,0.037-12.265,0.048c-5.071,0.013-10.143,0.025-15.214,0.038c-5.797-0.01-11.594-0.021-17.391-0.03
				C40.433,28.533,38.653,28.528,36.873,28.523z"/>
			<path fill="#19313F" d="M186.363,34.588c0.111-0.045,0.223-0.09,0.334-0.135C186.586,34.499,186.475,34.543,186.363,34.588z"/>
			<path fill="#141E25" d="M187.821,52.077c-0.22,0.204-0.327,0.406,0.038,0.599c-0.164,0.284-1.043,0.029-1.006,0.464
				C186.429,52.028,186.429,52.028,187.821,52.077z"/>
			<path fill="#3A0D49" d="M166.718,51.872c1.755,0.007,3.511,0.014,5.268,0.021c0.04,0.029,0.04,0.058,0,0.086
				C170.228,51.959,168.457,52.139,166.718,51.872z"/>
			<path fill="#424242" d="M181.164,48.331c-0.035-0.044-0.036-0.088-0.002-0.133c0.095,0.043,0.188,0.087,0.283,0.131
				c-0.001,0-0.141,0.026-0.141,0.026L181.164,48.331z"/>
			<path fill="#19313F" d="M137.525,49.844c0.385-0.15,0.829-0.128,1.266-0.127c6.552-0.002,13.104-0.005,19.656-0.007
				c0.519,0.034,1.085-0.06,1.53,0.168C152.494,49.867,145.01,49.855,137.525,49.844z"/>
			<path fill="#19313F" d="M103.59,70.442c0.101-0.002,0.201-0.005,0.302-0.008C103.791,70.438,103.69,70.439,103.59,70.442z"/>
			<path fill="#535353" d="M135.478,21.594c-0.012,0.106-0.023,0.211-0.035,0.317c-1.424-0.002-2.848-0.003-4.271-0.005
				c0.01-0.101,0.021-0.201,0.031-0.3C132.627,21.602,134.053,21.598,135.478,21.594z"/>
			<path fill="#141E25" d="M132.981,8.285c4.285,0,8.57-0.001,12.855,0.005c0.625,0.001,1.407-0.093,1.396,0.476
				c-4.77-0.01-9.54-0.02-14.311-0.03C132.941,8.586,132.961,8.436,132.981,8.285z"/>
			<path fill="#424242" d="M152.999,30.163l-0.114,0.011c0,0-0.11-0.021-0.111-0.021s-0.08,0.004-0.08,0.004
				c-2.404-0.332-4.81-0.305-7.218-0.012c-0.122,0.003-0.245,0.006-0.367,0.009l0.007-0.003c-0.405-0.225-0.932-0.169-1.424-0.17
				c-3.768-0.004-7.536-0.003-11.305-0.003l0.007,0.003c-0.021-0.093-0.043-0.187-0.064-0.28c3.698-0.013,7.396-0.022,11.093-0.042
				c0.58-0.003,1.215,0.093,1.703-0.182l-0.032,0.002c0.14,0.008,0.278,0.016,0.418,0.024c2.379,0.225,4.757,0.231,7.134-0.005
				l0.121-0.035c2.642,0,5.282,0,7.924,0C158.061,29.521,155.501,29.733,152.999,30.163z"/>
			<path fill="#29A4CE" d="M74.818,28.53c-0.04,0.31-0.08,0.621-0.119,0.931c-5.037-0.004-10.073-0.008-15.109-0.012
				c0.005-0.293,0.01-0.587,0.015-0.88C64.675,28.556,69.747,28.543,74.818,28.53z"/>
			<path fill="#141E25" d="M159.932,31.764c0.019-0.042,0.026-0.085,0.022-0.129c1.731-0.01,3.462-0.02,5.192-0.029l0.022,0.002
				C163.457,31.986,161.68,31.73,159.932,31.764z"/>
			<path fill="#24071D" d="M122.379,31.784c0.314-0.493,1.098-0.303,1.682-0.304c9.539-0.012,19.078-0.008,28.617-0.007
				c0.004,0.103,0.009,0.206,0.013,0.309C142.587,31.783,132.482,31.783,122.379,31.784z"/>
			<path fill="#19313F" d="M109.65,36.062c0-0.163-0.001-0.326-0.001-0.488c1.955,0.002,3.911,0.005,5.866,0.006
				c0.665,0,1.367-0.034,1.394,0.494C114.489,36.07,112.07,36.066,109.65,36.062z"/>
			<path fill="#081317" d="M105.71,25.558c-0.213,0.74,0.313,1.027,1.736,0.981c1.851-0.059,3.714-0.03,5.569-0.005
				c0.973,0.013,1.886-0.043,2.722-0.328c0.003,0.268,0.006,0.537,0.008,0.805c-0.516,0.051-0.641,0.249-0.631,0.497
				c-3.143,0.003-6.284,0.005-9.426,0.008c0.062-0.456-0.512-0.508-1.138-0.526c-0.01-0.101-0.018-0.202-0.026-0.302
				c0.006-0.375,0.012-0.751,0.019-1.127c0.378-0.008,0.757-0.016,1.136-0.024L105.71,25.558z"/>
			<path fill="#19313F" d="M120.254,29.322c-1.077-0.028-0.815-0.484-0.901-0.83c0.278-0.059,0.556-0.117,0.834-0.175
				c0.028,0.067,0.058,0.134,0.087,0.202C120.267,28.786,120.26,29.054,120.254,29.322z"/>
		</g>
	</g>
	<g>
		<defs>
			<rect id="SVGID_3_" width="192" height="108"/>
		</defs>
		<clipPath id="SVGID_4_">
			<use xlink:href="#SVGID_3_"  overflow="visible"/>
		</clipPath>
		<g clip-path="url(#SVGID_4_)">
			<rect x="141.908" y="70.914" fill="#FFFF01" width="1.898" height="1.897"/>
			<rect x="-1.171" y="86.926" fill="#0000FE" width="1.898" height="1.897"/>
			<rect x="154.757" y="105.513" fill="#CCCCCC" width="1.897" height="1.898"/>
			<rect x="72.036" y="20.77" fill="#0000FE" width="1.898" height="1.898"/>
			<rect x="148.778" y="39.546" fill="#01FF01" width="1.898" height="1.898"/>
			<rect x="111.528" y="96.146" fill="#01FFFF" width="1.897" height="1.897"/>
			<rect x="142.663" y="59.526" fill="#0000FE" width="1.897" height="1.898"/>
			<rect x="83.566" y="64.821" fill="#01FFFF" width="1.898" height="1.898"/>
			<rect x="98.868" y="84.672" fill="#0000FE" width="1.897" height="1.897"/>
			<rect x="86.347" y="79.855" fill="#01FFFF" width="1.898" height="1.897"/>
			<rect x="40.775" y="62.126" fill="#01FFFF" width="1.898" height="1.897"/>
			<rect x="161.911" y="81.72" fill="#FF3FFC" width="1.897" height="1.897"/>
			<rect x="-0.677" y="29.727" fill="#0000FE" width="1.898" height="1.898"/>
			<rect x="63.134" y="1.098" fill="#FFFF01" width="1.898" height="1.898"/>
			<rect x="156.545" y="-4.237" fill="#0000FE" width="1.897" height="1.898"/>
			<rect x="-2.459" y="92.549" fill="#FF3FFC" width="1.898" height="1.898"/>
			<rect x="-2.18" y="62.536" width="1.898" height="1.898"/>
			<rect x="127.751" y="82.587" fill="#0000FE" width="1.897" height="1.897"/>
			<rect x="23.795" y="88.245" fill="#0000FE" width="1.898" height="1.898"/>
			<rect x="122.027" y="47.733" fill="#FF3FFC" width="1.897" height="1.898"/>
			<rect x="-2.749" y="34.288" fill="#01FF01" width="1.898" height="1.898"/>
			<rect x="115.848" y="76.815" fill="#FF3FFC" width="1.897" height="1.898"/>
			<rect x="67.282" y="13.454" fill="#FFFF01" width="1.898" height="1.898"/>
			<rect x="4.19" y="38.673" fill="#FFFF01" width="1.898" height="1.898"/>
			<rect x="126.261" y="90.838" width="1.897" height="1.897"/>
			<rect x="104.506" y="11.521" width="1.897" height="1.898"/>
			<rect x="50.09" y="25.181" fill="#01FFFF" width="1.898" height="1.898"/>
			<rect x="59.561" y="58.551" fill="#FD241F" width="1.898" height="1.898"/>
			<rect x="86.202" y="52.55" width="1.898" height="1.898"/>
			<rect x="111.697" y="75.089" width="1.897" height="1.898"/>
			<rect x="40.289" y="44.69" width="1.898" height="1.898"/>
			<rect x="5.664" y="59.651" fill="#0000FE" width="1.898" height="1.897"/>
			<rect x="4.102" y="85.924" fill="#CCCCCC" width="1.898" height="1.898"/>
			<rect x="155.288" y="107.311" fill="#01FF01" width="1.898" height="1.898"/>
			<rect x="7.814" y="69.419" fill="#01FF01" width="1.898" height="1.897"/>
			<rect x="149.348" y="10.414" fill="#0000FE" width="1.897" height="1.898"/>
			<rect x="76.576" y="107.202" fill="#FD241F" width="1.898" height="1.897"/>
			<rect x="135.104" y="55.865" fill="#FF3FFC" width="1.897" height="1.898"/>
			<rect x="-0.202" y="69.573" fill="#FF3FFC" width="1.898" height="1.897"/>
			<rect x="106.213" y="77.618" fill="#FF3FFC" width="1.897" height="1.898"/>
			<rect x="164.682" y="108.536" fill="#FFFF01" width="1.897" height="1.898"/>
			<rect x="115.007" y="100.021" fill="#0000FE" width="1.898" height="1.897"/>
			<rect x="161.756" y="94.839" fill="#01FFFF" width="1.897" height="1.897"/>
			<rect x="113.466" y="59.873" fill="#01FFFF" width="1.898" height="1.898"/>
			<rect x="7.997" y="39.006" fill="#FFFF01" width="1.898" height="1.898"/>
			<rect x="75.945" y="38.772" fill="#0000FE" width="1.898" height="1.898"/>
			<rect x="124.534" y="100.55" width="1.898" height="1.898"/>
			<rect x="86.57" y="81.24" fill="#0000FE" width="1.898" height="1.898"/>
			<rect x="14.937" y="72.448" fill="#FFFF01" width="1.898" height="1.897"/>
			<rect x="75.751" y="55.609" fill="#FF3FFC" width="1.898" height="1.897"/>
			<rect x="11.436" y="71.602" fill="#01FF01" width="1.898" height="1.898"/>
			<rect x="37.758" y="104.763" fill="#01FFFF" width="1.897" height="1.898"/>
			<rect x="3.154" y="88.026" fill="#01FFFF" width="1.898" height="1.898"/>
			<rect x="85.59" y="15.75" fill="#FFFF01" width="1.898" height="1.898"/>
			<rect x="107.313" y="22.463" fill="#0000FE" width="1.897" height="1.898"/>
			<rect x="125.992" y="52.239" fill="#01FFFF" width="1.897" height="1.898"/>
			<rect x="5.721" y="94.495" fill="#0000FE" width="1.898" height="1.898"/>
			<rect x="58.104" y="0.583" fill="#01FF01" width="1.898" height="1.898"/>
			<rect x="10.126" y="61.606" fill="#FD241F" width="1.898" height="1.897"/>
			<rect x="122.14" y="49.492" fill="#0000FE" width="1.898" height="1.898"/>
			<rect x="103.327" y="79.323" fill="#FF3FFC" width="1.897" height="1.898"/>
			<rect x="36.337" y="103.94" fill="#FFFF01" width="1.898" height="1.898"/>
			<rect x="62.608" y="95.342" width="1.898" height="1.897"/>
			<rect x="30.281" y="39.237" width="1.898" height="1.898"/>
			<rect x="70.312" y="27.208" fill="#01FF01" width="1.898" height="1.898"/>
			<rect x="48.815" y="94.954" fill="#01FF01" width="1.898" height="1.898"/>
			<rect x="61.548" y="70.128" fill="#CCCCCC" width="1.898" height="1.898"/>
			<rect x="145.718" y="81.303" fill="#01FF01" width="1.898" height="1.898"/>
			<rect x="139.082" y="100.222" fill="#01FFFF" width="1.897" height="1.898"/>
			<rect x="161.374" y="90.32" fill="#01FFFF" width="1.898" height="1.897"/>
			<rect x="150.818" y="23.007" fill="#01FFFF" width="1.898" height="1.898"/>
			<rect x="67.792" y="-1.641" fill="#01FF01" width="1.898" height="1.898"/>
			<rect x="105.697" y="16.438" width="1.897" height="1.898"/>
			<rect x="3.718" y="33.991" fill="#FFFF01" width="1.898" height="1.898"/>
			<rect x="150.571" y="70.563" fill="#01FF01" width="1.898" height="1.898"/>
			<rect x="107.539" y="107.557" width="1.897" height="1.898"/>
			<rect x="164.183" y="41.956" fill="#FD241F" width="1.897" height="1.898"/>
			<rect x="117.066" y="36.761" fill="#FFFF01" width="1.897" height="1.898"/>
			<rect x="85.84" y="35.563" fill="#0000FE" width="1.898" height="1.898"/>
			<rect x="157.876" y="83.591" fill="#01FFFF" width="1.898" height="1.897"/>
			<rect x="127.047" y="94.112" fill="#01FF01" width="1.898" height="1.897"/>
			<rect x="116.239" y="5.842" fill="#FFFF01" width="1.898" height="1.898"/>
			<rect x="39.559" y="55.239" fill="#01FF01" width="1.898" height="1.897"/>
			<rect x="30.582" y="71.489" fill="#FF3FFC" width="1.898" height="1.897"/>
			<rect x="173.586" y="58.14" width="1.898" height="1.898"/>
			<rect x="7.603" y="103.656" fill="#FFFF01" width="1.898" height="1.897"/>
			<rect x="33.604" y="47.231" fill="#01FF01" width="1.898" height="1.898"/>
			<rect x="161.274" y="34.799" fill="#FFFF01" width="1.898" height="1.898"/>
			<rect x="100.549" y="88.731" width="1.897" height="1.898"/>
			<rect x="17.441" y="96.296" fill="#01FFFF" width="1.897" height="1.898"/>
			<rect x="110.449" y="13.231" fill="#0000FE" width="1.897" height="1.898"/>
			<rect x="144.58" y="69.562" fill="#FFFF01" width="1.897" height="1.898"/>
			<rect x="93.741" y="30.69" fill="#01FF01" width="1.897" height="1.898"/>
			<rect x="69.537" y="30.05" fill="#0000FE" width="1.897" height="1.898"/>
			<rect x="35.105" y="53.97" fill="#01FF01" width="1.898" height="1.898"/>
			<rect x="69.301" y="108.847" fill="#FF3FFC" width="1.898" height="1.897"/>
			<rect x="94.208" y="48.28" fill="#0000FE" width="1.898" height="1.898"/>
			<rect x="97.149" y="44.917" width="1.898" height="1.897"/>
			<rect x="67.204" y="-1.398" fill="#0000FE" width="1.898" height="1.898"/>
			<rect x="93.996" y="60.398" fill="#01FF01" width="1.898" height="1.897"/>
			<rect x="117.163" y="-8.042" fill="#FFFF01" width="1.897" height="1.898"/>
			<rect x="157.796" y="-6.48" fill="#FFFF01" width="1.897" height="1.898"/>
			<rect x="115.321" y="17.198" width="1.898" height="1.898"/>
			<rect x="30.663" y="90.585" fill="#01FFFF" width="1.898" height="1.897"/>
			<rect x="149.635" y="29.763" fill="#01FFFF" width="1.898" height="1.898"/>
			<rect x="160.072" y="37.217" fill="#FD241F" width="1.897" height="1.898"/>
			<rect x="177.801" y="72.119" width="1.897" height="1.898"/>
			<rect x="134.559" y="37.391" width="1.898" height="1.898"/>
			<rect x="135.928" y="64.951" fill="#FD241F" width="1.898" height="1.898"/>
			<rect x="79.864" y="106.992" fill="#FFFF01" width="1.898" height="1.897"/>
			<rect x="181.838" y="33.089" width="1.898" height="1.898"/>
			<rect x="59.849" y="111.219" fill="#0000FE" width="1.898" height="1.897"/>
			<rect x="146.094" y="58.53" fill="#0000FE" width="1.898" height="1.898"/>
			<rect x="97.837" y="29.173" fill="#FF3FFC" width="1.898" height="1.898"/>
			<rect x="178.679" y="79.113" fill="#01FF01" width="1.897" height="1.897"/>
			<rect x="38.407" y="60.635" fill="#FF3FFC" width="1.898" height="1.898"/>
			<rect x="105.714" y="45.06" fill="#01FFFF" width="1.897" height="1.898"/>
			<rect x="141.3" y="22.201" fill="#FFFF01" width="1.897" height="1.898"/>
			<rect x="179.231" y="53.809" fill="#FD241F" width="1.898" height="1.898"/>
			<rect x="31.481" y="21.745" fill="#FFFF01" width="1.897" height="1.898"/>
			<rect x="116.559" y="63.848" fill="#FFFF01" width="1.898" height="1.897"/>
			<rect x="88.052" y="82.475" width="1.898" height="1.898"/>
			<rect x="77.888" y="28.102" fill="#FD241F" width="1.898" height="1.898"/>
			<rect x="65.346" y="89.36" fill="#01FF01" width="1.898" height="1.898"/>
			<rect x="173.693" y="45.066" fill="#01FFFF" width="1.898" height="1.898"/>
			<rect x="165.012" y="52.194" fill="#0000FE" width="1.898" height="1.897"/>
			<rect x="95.244" y="13.806" fill="#0000FE" width="1.897" height="1.898"/>
			<rect x="169.761" y="52.709" fill="#FD241F" width="1.897" height="1.898"/>
			<rect x="52.71" y="69.572" fill="#0000FE" width="1.898" height="1.897"/>
			<rect x="148.392" y="75.824" fill="#FD241F" width="1.898" height="1.898"/>
			<rect x="28.792" y="17.895" fill="#FFFF01" width="1.898" height="1.898"/>
			<rect x="30.005" y="26.761" fill="#01FF01" width="1.898" height="1.898"/>
			<rect x="138.175" y="110.319" fill="#CCCCCC" width="1.897" height="1.898"/>
			<rect x="171.208" y="26.094" fill="#01FFFF" width="1.897" height="1.898"/>
			<rect x="143.036" y="41.276" fill="#01FF01" width="1.898" height="1.898"/>
			<rect x="45.502" y="74.138" fill="#01FF01" width="1.898" height="1.897"/>
			<rect x="106.709" y="32.275" fill="#FFFF01" width="1.898" height="1.898"/>
			<rect x="78.592" y="71.878" fill="#FF3FFC" width="1.898" height="1.898"/>
			<rect x="139.348" y="96.373" width="1.898" height="1.898"/>
			<rect x="84.004" y="108.04" fill="#01FF01" width="1.898" height="1.898"/>
			<rect x="81.639" y="-5.066" fill="#CCCCCC" width="1.898" height="1.898"/>
			<rect x="67.523" y="52.005" fill="#01FFFF" width="1.898" height="1.898"/>
			<rect x="180.912" y="1.119" fill="#FF3FFC" width="1.898" height="1.898"/>
			<rect x="151.828" y="25.36" fill="#0000FE" width="1.897" height="1.898"/>
			<rect x="36.775" y="12.888" width="1.898" height="1.898"/>
			<rect x="35.143" y="67.889" fill="#FD241F" width="1.898" height="1.897"/>
			<rect x="183.141" y="78.507" fill="#FFFF01" width="1.897" height="1.898"/>
			<rect x="185.578" y="106.234" fill="#0000FE" width="1.897" height="1.898"/>
			<rect x="27.726" y="51.459" fill="#CCCCCC" width="1.898" height="1.898"/>
			<rect x="134.204" y="108.525" fill="#FF3FFC" width="1.898" height="1.897"/>
			<rect x="22.034" y="40.598" fill="#01FF01" width="1.898" height="1.898"/>
			<rect x="190.885" y="77.192" width="1.898" height="1.898"/>
			<rect x="176.399" y="43.687" fill="#01FFFF" width="1.898" height="1.898"/>
			<rect x="173.854" y="101.193" width="1.898" height="1.897"/>
			<rect x="47.132" y="-0.351" width="1.898" height="1.898"/>
			<rect x="49.14" y="69.641" width="1.898" height="1.898"/>
			<rect x="145.165" y="80.973" fill="#0000FE" width="1.898" height="1.898"/>
			<rect x="23.712" y="61.353" fill="#01FFFF" width="1.898" height="1.898"/>
			<rect x="85.327" y="52.262" width="1.898" height="1.897"/>
			<rect x="79.926" y="37.142" fill="#01FFFF" width="1.898" height="1.898"/>
			<rect x="34.464" y="86.641" fill="#01FFFF" width="1.898" height="1.898"/>
			<rect x="109.189" y="60.963" fill="#CCCCCC" width="1.898" height="1.898"/>
			<rect x="170.912" y="97.877" fill="#FF3FFC" width="1.898" height="1.897"/>
			<rect x="117.2" y="41.355" fill="#01FFFF" width="1.898" height="1.898"/>
			<rect x="168.185" y="19.924" fill="#FF3FFC" width="1.898" height="1.898"/>
			<rect x="60.831" y="88.021" fill="#FF3FFC" width="1.898" height="1.898"/>
			<rect x="124.213" y="58.779" fill="#01FFFF" width="1.897" height="1.898"/>
			<rect x="173.524" y="61.186" fill="#01FF01" width="1.897" height="1.897"/>
			<rect x="163.607" y="9.494" fill="#CCCCCC" width="1.898" height="1.897"/>
			<rect x="105.402" y="15.813" fill="#01FF01" width="1.897" height="1.898"/>
			<rect x="169.224" y="33.56" fill="#FFFF01" width="1.898" height="1.898"/>
			<rect x="193.31" y="93.784" fill="#0000FE" width="1.897" height="1.898"/>
			<rect x="35.728" y="40.188" fill="#CCCCCC" width="1.898" height="1.898"/>
			<rect x="195.854" y="90.965" fill="#01FFFF" width="1.897" height="1.897"/>
			<rect x="162.577" y="99.599" fill="#FF3FFC" width="1.897" height="1.897"/>
			<rect x="90.149" y="51.471" fill="#01FFFF" width="1.897" height="1.898"/>
			<rect x="47.806" y="2.141" fill="#01FF01" width="1.898" height="1.898"/>
			<rect x="78.275" y="107.823" fill="#CCCCCC" width="1.898" height="1.898"/>
			<rect x="162.665" y="107.717" fill="#0000FE" width="1.898" height="1.898"/>
			<rect x="138.301" y="80.272" fill="#01FF01" width="1.898" height="1.897"/>
			<rect x="61.282" y="35.64" fill="#FFFF01" width="1.898" height="1.898"/>
		</g>
	</g>
	<g>
		<defs>
			<rect id="SVGID_5_" width="192" height="108"/>
		</defs>
		<clipPath id="SVGID_6_">
			<use xlink:href="#SVGID_5_"  overflow="visible"/>
		</clipPath>
		<g clip-path="url(#SVGID_6_)">
			<rect x="56.94" y="2.873" fill="#FFFF01" width="3.29" height="2.103"/>
			<rect x="84.808" y="94.519" fill="#FF3FFC" width="3.167" height="4.488"/>
			<rect x="12.391" y="51.354" fill="#01FF01" width="3.07" height="2.568"/>
			<rect x="67.857" y="71.018" width="4.683" height="3.168"/>
			<rect x="135.645" y="52.147" fill="#FFFF01" width="2.276" height="3.328"/>
			<rect x="125.226" y="48.061" fill="#01FF01" width="3.872" height="5.059"/>
			<rect x="84.42" y="90.969" width="3.25" height="2.554"/>
			<rect x="9.823" y="99.085" fill="#FFFF01" width="2.997" height="4.795"/>
			<rect x="15.677" y="93.8" fill="#FF3FFC" width="2.484" height="5.449"/>
			<rect x="128.832" y="79.378" fill="#0000FE" width="5.561" height="4.347"/>
			<rect x="2.399" y="45.579" fill="#01FFFF" width="3.611" height="3.766"/>
			<rect x="133.312" y="34.137" fill="#01FF01" width="4.783" height="5.374"/>
			<rect x="-9.132" y="80.145" fill="#01FF01" width="3.157" height="2.895"/>
			<rect x="113.161" y="34.379" fill="#FF3FFC" width="1.944" height="3.053"/>
			<rect x="67.723" y="30.246" width="4.919" height="4.835"/>
			<rect x="112.993" y="55.759" fill="#FF3FFC" width="5.136" height="4.546"/>
			<rect x="146.216" y="36.511" fill="#FF3FFC" width="3.056" height="5.299"/>
			<rect x="10.759" y="-3.248" fill="#FFFF01" width="2.602" height="2.201"/>
			<rect x="29.671" y="95.478" fill="#01FF01" width="4.96" height="4.326"/>
			<rect x="85.896" y="47.123" width="5.458" height="4.369"/>
			<rect x="67.014" y="4.804" fill="#0000FE" width="3.641" height="5.175"/>
			<rect x="42.415" y="58.208" fill="#01FFFF" width="2.124" height="4.597"/>
			<rect x="131.636" y="93.214" fill="#FF3FFC" width="4.812" height="4.686"/>
			<rect x="52.102" y="52.025" width="2.777" height="3.432"/>
			<rect x="128.982" y="43.614" fill="#01FF01" width="3.257" height="2.973"/>
			<rect x="108.25" y="10.316" fill="#FD241F" width="4.771" height="5.392"/>
			<rect x="68.703" y="90.12" width="2.298" height="5.302"/>
			<rect x="31.485" y="33.48" fill="#01FFFF" width="4.194" height="2.829"/>
			<rect x="18.518" y="10.192" width="5.055" height="2.271"/>
			<rect x="80.431" y="71.306" fill="#0000FE" width="2.16" height="2.089"/>
			<rect x="129.002" y="46.765" fill="#01FF01" width="3.02" height="3.607"/>
			<rect x="109.706" y="86.087" fill="#0000FE" width="1.966" height="5.02"/>
			<rect x="15.032" y="18.087" fill="#CCCCCC" width="4.526" height="5.429"/>
			<rect x="68.5" y="32.548" fill="#0000FE" width="2.661" height="5.02"/>
			<rect x="149.81" y="57.054" fill="#01FF01" width="3.358" height="4.256"/>
			<rect x="40.374" y="14.945" fill="#FD241F" width="4.091" height="5.569"/>
			<rect x="139.085" y="73.072" fill="#01FFFF" width="2.182" height="2.124"/>
			<rect x="120.907" y="98.339" fill="#FFFF01" width="2.446" height="2.765"/>
			<rect x="115.456" y="29.766" fill="#FFFF01" width="2.461" height="2.217"/>
			<rect x="11.786" y="4.203" fill="#01FF01" width="2.739" height="4.343"/>
			<rect x="124.154" y="84.796" fill="#FFFF01" width="3.415" height="3.918"/>
			<rect x="51.081" y="3.21" fill="#CCCCCC" width="4.453" height="3.936"/>
			<rect x="17.113" y="-6.615" fill="#FF3FFC" width="5.175" height="4.273"/>
			<rect x="81.664" y="98.377" fill="#01FFFF" width="1.999" height="1.994"/>
			<rect x="85.467" y="100.378" fill="#01FF01" width="5.56" height="3.373"/>
			<rect x="122.83" y="82.521" fill="#FFFF01" width="5.554" height="3.547"/>
			<rect x="86.391" y="79.745" fill="#CCCCCC" width="4.608" height="5.473"/>
			<rect x="64.861" y="95.422" fill="#FD241F" width="2.438" height="4.512"/>
			<rect x="157.1" y="85.317" fill="#FF3FFC" width="2.501" height="1.975"/>
			<rect x="120.066" y="61.883" fill="#01FFFF" width="5.084" height="2.979"/>
			<rect x="123.667" y="104.53" fill="#01FFFF" width="4.997" height="3.995"/>
			<rect x="157.931" y="37.794" fill="#01FF01" width="3.228" height="5.475"/>
			<rect x="99.827" y="42.681" fill="#FF3FFC" width="3.045" height="4.364"/>
			<rect x="178.62" y="72.014" fill="#FF3FFC" width="4.356" height="3.858"/>
			<rect x="160.988" y="3.923" fill="#0000FE" width="5.215" height="5.112"/>
			<rect x="65.118" y="97.243" fill="#FF3FFC" width="2.833" height="2.943"/>
			<rect x="57.98" y="45.166" fill="#01FF01" width="2.321" height="5.454"/>
			<rect x="181.44" y="97.725" fill="#CCCCCC" width="4.745" height="2.405"/>
			<rect x="130.153" y="38.171" fill="#0000FE" width="3.61" height="2.845"/>
			<rect x="136.443" y="92.191" fill="#FFFF01" width="2.091" height="5.43"/>
			<rect x="127.561" y="71.79" width="4.893" height="4.584"/>
			<rect x="75.266" y="107.649" fill="#01FF01" width="4.346" height="3.244"/>
			<rect x="139.282" y="35.692" fill="#01FF01" width="5.234" height="3.853"/>
			<rect x="86.459" y="42.9" fill="#FF3FFC" width="2.051" height="4.188"/>
			<rect x="132.331" y="49.613" width="4.7" height="4.978"/>
			<rect x="120.154" y="44.039" fill="#01FFFF" width="4.613" height="3.308"/>
			<rect x="182.144" y="68.312" fill="#01FFFF" width="4.863" height="2.446"/>
			<rect x="140.174" y="23.148" fill="#FF3FFC" width="4.208" height="2.91"/>
			<rect x="26.705" y="41.269" fill="#FD241F" width="5.324" height="2.276"/>
			<rect x="178.002" y="39.876" fill="#FD241F" width="4.169" height="2.801"/>
			<rect x="73.064" y="21.848" fill="#0000FE" width="2.752" height="5.427"/>
			<rect x="139.759" y="29.968" width="5.495" height="2.356"/>
			<rect x="84.752" y="2.167" fill="#FD241F" width="4.674" height="3.922"/>
			<rect x="153.469" y="16.415" fill="#0000FE" width="2.584" height="5.244"/>
			<rect x="197.998" y="66.252" fill="#CCCCCC" width="3.801" height="4.253"/>
			<rect x="132.295" y="61.75" fill="#0000FE" width="3.258" height="4.428"/>
			<rect x="101.931" y="87.182" fill="#FFFF01" width="4.819" height="3.463"/>
		</g>
	</g>
	<g>
		<defs>
			<rect id="SVGID_7_" width="192" height="108"/>
		</defs>
		<clipPath id="SVGID_8_">
			<use xlink:href="#SVGID_7_"  overflow="visible"/>
		</clipPath>
		<g clip-path="url(#SVGID_8_)">
			<rect x="128.218" y="36.16" fill="#0000FE" width="13.333" height="1.898"/>
			<rect x="105.978" y="50.785" fill="#0000FE" width="13.004" height="1.898"/>
			<rect x="111.149" y="52.446" fill="#01FFFF" width="12.963" height="1.897"/>
			<rect x="47.376" y="81.384" fill="#01FF01" width="12.372" height="1.898"/>
			<rect x="137.711" y="34.643" width="7.399" height="1.898"/>
			<rect x="59.648" y="65.285" fill="#0000FE" width="4.231" height="1.898"/>
			<rect x="135.157" y="92.838" width="10.59" height="1.897"/>
			<rect x="39.412" y="62.225" width="11.54" height="1.897"/>
			<rect x="106.349" y="53.904" fill="#01FF01" width="2.946" height="1.898"/>
			<rect x="-9.038" y="61.465" fill="#0000FE" width="4.923" height="1.898"/>
			<rect x="56.492" y="61.985" fill="#FF3FFC" width="11.848" height="1.898"/>
			<rect x="0.159" y="36.867" fill="#FFFF01" width="10.289" height="1.898"/>
			<rect x="49.502" y="26.812" width="11.364" height="1.898"/>
			<rect x="102.9" y="69.755" fill="#0000FE" width="4.383" height="1.898"/>
			<rect x="44.722" y="90.461" fill="#01FF01" width="8.721" height="1.897"/>
			<rect x="9.96" y="45.486" fill="#FFFF01" width="8.478" height="1.898"/>
			<rect x="19.204" y="53.593" fill="#01FFFF" width="7.114" height="1.898"/>
			<rect x="18.726" y="43.139" fill="#01FF01" width="9.905" height="1.898"/>
			<rect x="74.907" y="83.886" fill="#FFFF01" width="7.604" height="1.897"/>
			<rect x="163.374" y="74.735" fill="#FD241F" width="11.294" height="1.897"/>
			<rect x="89.617" y="97.25" width="13.496" height="1.898"/>
			<rect x="127.185" y="44.637" fill="#0000FE" width="6.246" height="1.898"/>
			<rect x="85.559" y="38.63" fill="#CCCCCC" width="8.135" height="1.898"/>
			<rect x="161.171" y="67.351" fill="#0000FE" width="3.099" height="1.897"/>
			<rect x="20.658" y="1.854" fill="#01FFFF" width="2.289" height="1.898"/>
			<rect x="178.904" y="47.461" fill="#0000FE" width="2.677" height="1.898"/>
			<rect x="109.92" y="53.106" fill="#01FFFF" width="5.007" height="1.897"/>
			<rect x="104.924" y="7.833" fill="#01FFFF" width="10.124" height="1.898"/>
			<rect x="153.549" y="50.871" fill="#FFFF01" width="5.554" height="1.898"/>
			<rect x="168.216" y="64.173" fill="#01FFFF" width="14.378" height="1.898"/>
			<rect x="48.57" y="-6.253" fill="#01FF01" width="2.813" height="1.897"/>
			<rect x="156.049" y="29.474" fill="#FF3FFC" width="10.847" height="1.897"/>
			<rect x="183.571" y="39.531" fill="#FFFF01" width="4.381" height="1.898"/>
			<rect x="48.492" y="59.691" fill="#01FFFF" width="15.107" height="1.898"/>
			<rect x="10.517" y="23.561" fill="#0000FE" width="13.921" height="1.898"/>
			<rect x="96.334" y="47.918" fill="#FF3FFC" width="3.105" height="1.898"/>
			<rect x="125.808" y="82.289" fill="#0000FE" width="10.938" height="1.897"/>
			<rect x="139.88" y="92.22" fill="#01FF01" width="4.398" height="1.898"/>
			<rect x="34.748" y="66.687" fill="#0000FE" width="6.027" height="1.897"/>
			<rect x="118.178" y="5.356" fill="#FFFF01" width="3.354" height="1.898"/>
			<rect x="63.493" y="101.403" fill="#0000FE" width="12.933" height="1.898"/>
			<rect x="154.718" y="18.788" fill="#01FFFF" width="5.799" height="1.898"/>
			<rect x="60.483" y="88.216" fill="#01FF01" width="10.347" height="1.898"/>
			<rect x="148.939" y="91.823" fill="#0000FE" width="7.842" height="1.897"/>
			<rect x="79.895" y="46.954" fill="#01FFFF" width="7.411" height="1.898"/>
			<rect x="148.644" y="52.244" fill="#FF3FFC" width="10.216" height="1.898"/>
			<rect x="71.603" y="26.662" fill="#FF3FFC" width="2.707" height="1.898"/>
			<rect x="195.895" y="33.059" fill="#01FFFF" width="12.969" height="1.898"/>
			<rect x="131.409" y="101.662" width="12.32" height="1.897"/>
			<rect fill="none" width="192" height="108"/>
		</g>
	</g>
</g>
</svg>
