
<svg width="114px" height="20px" viewBox="0 0 114 20" version="1.1" xmlns="http://www.w3.org/2000/svg" xmlns:xlink="http://www.w3.org/1999/xlink">
    <defs>
        <polygon id="path-1" points="0.00024 0.5864 16.09384 0.5864 16.09384 15.0624 0.00024 15.0624"></polygon>
        <polygon id="path-3" points="0.27488 0.5864 15.56928 0.5864 15.56928 15.06232 0.27488 15.06232"></polygon>
        <polygon id="path-5" points="0.07248 0.10488 14.98608 0.10488 14.98608 15.2 0.07248 15.2"></polygon>
    </defs>
    <g id="Page-1" stroke="none" stroke-width="1" fill="none" fill-rule="evenodd">
        <g id="mainpage" transform="translate(-1394.000000, -1043.000000)">
            <g id="footer" transform="translate(0.000000, 1020.000000)">
                <g id="logoosd" transform="translate(1394.000000, 23.000000)">
                    <g id="Group-3" transform="translate(0.000000, 0.213280)">
                        <mask id="mask-2" fill="white">
                            <use xlink:href="#path-1"></use>
                        </mask>
                        <g id="Clip-2"></g>
                        <path d="M6.35784,6.0848 C6.01784,6.9848 5.65784,8.664 5.65784,9.7632 C5.65784,11.5824 6.83704,11.7024 7.25704,11.7024 C7.95704,11.7024 9.07624,11.3024 9.73624,9.5632 C10.05624,8.744 10.43624,6.8848 10.43624,5.8456 C10.43624,4.1448 9.33624,3.9448 8.83624,3.9448 C8.25704,3.9448 7.09704,4.2048 6.35784,6.0848 M16.09384,6.0248 C16.09384,8.824 14.33464,15.0624 6.45784,15.0624 C1.47944,15.0624 0.00024,12.1632 0.00024,9.6232 C0.00024,6.804 1.81944,0.5864 9.51624,0.5864 C14.81464,0.5864 16.09384,3.7456 16.09384,6.0248" id="Fill-1" fill="#FEFEFE" mask="url(#mask-2)"></path>
                    </g>
                    <path d="M29.40824,4.87888 C27.86824,4.33808 26.42904,4.15808 25.28984,4.15808 C24.42984,4.15808 22.89064,4.23808 22.89064,5.19888 C22.89064,5.83808 23.74984,5.95808 24.60984,6.11808 C26.50904,6.47808 29.22744,6.95808 29.22744,9.65648 C29.22744,11.13648 28.44824,12.59568 27.56904,13.41648 C25.76984,15.09568 22.83064,15.27568 21.39064,15.27568 C18.93224,15.27568 17.03224,14.89568 15.73384,14.53488 L16.47304,10.97648 C18.19224,11.69568 19.87224,11.91568 21.11144,11.91568 C23.29064,11.91568 23.70984,11.31568 23.70984,10.81648 C23.70984,10.23648 23.11064,10.11648 22.57064,9.99648 C19.75224,9.35728 17.41224,8.95728 17.41224,6.21808 C17.41224,3.63888 19.59144,0.79968 25.16984,0.79968 C26.58904,0.79968 28.36824,0.91968 30.14744,1.27968 L29.40824,4.87888 Z" id="Fill-4" fill="#FEFEFE"></path>
                    <g id="Group-8" transform="translate(46.400000, 0.213280)">
                        <mask id="mask-4" fill="white">
                            <use xlink:href="#path-3"></use>
                        </mask>
                        <g id="Clip-7"></g>
                        <path d="M13.43008,14.30312 C11.17088,14.90152 9.25168,15.06232 7.57248,15.06232 C0.59488,15.06232 0.27488,10.44312 0.27488,9.34312 C0.27488,6.40472 2.21408,0.58632 10.87088,0.58632 C12.21008,0.58632 13.65008,0.68632 15.56928,1.18632 L14.78928,4.84552 C14.28928,4.60552 13.08928,4.06472 11.25008,4.06472 C7.61248,4.06472 5.93248,6.70392 5.93248,9.08392 C5.93248,10.48312 6.77248,11.58232 8.41168,11.58232 C8.95168,11.58232 9.27168,11.50312 9.39088,11.46312 L10.07088,8.12392 L14.68928,8.12392 L13.43008,14.30312 Z" id="Fill-6" fill="#FEFEFE" mask="url(#mask-4)"></path>
                    </g>
                    <path d="M68.5848,4.55824 L68.0864,6.93744 L68.1664,6.93744 C68.8048,5.69824 70.1048,4.31824 71.8648,4.31824 C72.1848,4.31824 72.4648,4.37824 72.6648,4.41824 L71.8048,8.61744 C71.5648,8.55744 71.1848,8.45744 70.7048,8.45744 C69.0256,8.45744 67.8664,9.69664 67.5456,11.23664 L66.7664,15.03504 L61.7288,15.03504 L63.868,4.55824 L68.5848,4.55824 Z" id="Fill-9" fill="#FEFEFE"></path>
                    <path d="M78.02072,8.15744 C77.70072,8.79744 77.34072,10.45664 77.34072,11.29664 C77.34072,12.09584 77.76152,12.27584 78.08152,12.27584 C78.85992,12.27584 79.20072,11.59584 79.37992,11.07584 C79.63912,10.35664 79.91912,9.19664 79.91912,8.31744 C79.91912,8.01744 79.87992,7.31744 79.13912,7.31744 C78.47992,7.31744 78.16152,7.87744 78.02072,8.15744 M85.27672,8.77744 C85.27672,12.15584 82.41912,15.27584 77.62072,15.27584 C72.62232,15.27584 71.98312,12.37584 71.98312,10.97584 C71.98312,7.67744 74.56152,4.31824 79.70072,4.31824 C83.83912,4.31824 85.27672,6.55824 85.27672,8.77744" id="Fill-11" fill="#FEFEFE"></path>
                    <path d="M97.37224,15.03512 L92.61464,15.03512 L92.97384,13.23672 L92.93464,13.23672 C91.71464,15.13512 89.89544,15.27592 88.97704,15.27592 C87.37704,15.27592 86.05624,14.59592 86.05624,12.85512 C86.05624,12.51592 86.09704,12.19592 86.15624,11.85592 L87.65624,4.55832 L92.69384,4.55832 L91.45544,10.61592 C91.39384,10.87592 91.37544,11.11672 91.37544,11.37592 C91.37544,11.49672 91.39384,12.03512 92.03464,12.03512 C92.95544,12.03512 93.13464,11.09672 93.23464,10.61592 L94.47384,4.55832 L99.51144,4.55832 L97.37224,15.03512 Z" id="Fill-13" fill="#FEFEFE"></path>
                    <g id="Group-17" transform="translate(98.400000, 4.213280)">
                        <mask id="mask-6" fill="white">
                            <use xlink:href="#path-5"></use>
                        </mask>
                        <g id="Clip-16"></g>
                        <path d="M7.22848,4.66408 C6.94848,5.30328 6.78928,6.14328 6.78928,6.78328 C6.78928,7.76328 7.34848,7.94248 7.70848,7.94248 C8.14848,7.94248 8.70848,7.70248 9.10848,6.78328 C9.36768,6.18328 9.54688,5.26328 9.54688,4.66408 C9.54688,3.58408 8.86928,3.50408 8.60848,3.50408 C8.12848,3.50408 7.60848,3.78408 7.22848,4.66408 Z M7.42848,2.12488 L7.50848,2.12488 C8.46928,0.72568 9.84688,0.10488 11.36768,0.10488 C12.26608,0.10488 14.98608,0.30488 14.98608,4.08408 C14.98608,8.32248 12.42688,11.06248 9.16768,11.06248 C8.32848,11.06248 6.94848,10.88248 6.28928,9.48248 L5.11008,15.20008 L0.07248,15.20008 L3.11008,0.34488 L7.78768,0.34488 L7.42848,2.12488 Z" id="Fill-15" fill="#FEFEFE" mask="url(#mask-6)"></path>
                    </g>
                    <path d="M39.868,1.03984 L32.5864,1.03984 L31.6616,5.64224 L37.0288,5.64224 L37.4256,3.59504 L42.2344,7.90624 L35.704,12.17344 L36.152,10.12064 L30.784,10.12064 L29.7472,15.03504 L37.0288,15.03504 C38.2288,15.03504 40.7872,14.89584 42.8272,13.03664 C44.5864,11.43664 45.5856,8.71744 45.5856,6.53824 C45.5856,4.17824 44.5864,1.03984 39.868,1.03984" id="Fill-18" fill="#FEFEFE"></path>
                </g>
            </g>
        </g>
    </g>
</svg>