
<svg width="232px" height="47px" viewBox="0 0 232 47" version="1.1" xmlns="http://www.w3.org/2000/svg" xmlns:xlink="http://www.w3.org/1999/xlink">
    <defs>
        <filter x="-5.9%" y="-34.2%" width="111.6%" height="168.4%" filterUnits="objectBoundingBox" id="filter-1">
            <feOffset dx="0" dy="2" in="SourceAlpha" result="shadowOffsetOuter1"></feOffset>
            <feGaussianBlur stdDeviation="2" in="shadowOffsetOuter1" result="shadowBlurOuter1"></feGaussianBlur>
            <feColorMatrix values="0 0 0 0 0   0 0 0 0 0   0 0 0 0 0  0 0 0 0.5 0" type="matrix" in="shadowBlurOuter1" result="shadowMatrixOuter1"></feColorMatrix>
            <feMerge>
                <feMergeNode in="shadowMatrixOuter1"></feMergeNode>
                <feMergeNode in="SourceGraphic"></feMergeNode>
            </feMerge>
        </filter>
    </defs>
    <g id="Page-1" stroke="none" stroke-width="1" fill="none" fill-rule="evenodd">
        <g id="mainpage" transform="translate(-421.000000, -45.000000)">
            <g id="header" transform="translate(426.000000, 48.000000)">
                <g id="logo" filter="url(#filter-1)" transform="translate(111.101001, 19.000000) rotate(-360.000000) translate(-111.101001, -19.000000) translate(0.000000, 0.000000)">
                    <path d="M91.4967084,2.5893186 L75.1290173,2.5893186 L73.0492434,13.6585464 L85.1137875,13.6585464 L86.0072926,8.73562478 L96.815067,19.1044143 L82.1382822,29.3695676 L83.1438464,24.4303659 L71.0781891,24.4303659 L68.7475807,36.2504604 L85.1156428,36.2504604 C87.8117423,36.2504604 93.5638664,35.9141389 98.1475323,31.441896 C102.102257,27.5954416 104.349006,21.0556352 104.349006,15.8138633 C104.349006,10.1392809 102.102257,2.5893186 91.4967084,2.5893186" id="Fill-1" fill="#FEFEFE"></path>
                    <path d="M14.5487313,15.8672611 C13.7702455,18.0405879 12.9475663,22.0962422 12.9475663,24.7507145 C12.9475663,29.1467981 15.6463924,29.4334126 16.6076957,29.4334126 C18.2081053,29.4334126 20.7705736,28.4671352 22.2807075,24.2675758 C23.011978,22.2887801 23.8811171,17.7982213 23.8811171,15.2884514 C23.8811171,11.1849617 21.3654863,10.7022216 20.2221208,10.7022216 C18.894049,10.7022216 16.2413051,11.3280696 14.5487313,15.8672611 Z M36.8290611,15.7221601 C36.8290611,22.4821153 32.8029187,37.5451197 14.7772533,37.5451197 C3.38552531,37.5451197 0,30.5427979 0,24.4118796 C0,17.6052848 4.16363333,2.5893186 21.7768259,2.5893186 C33.9005798,2.5893186 36.8290611,10.2186843 36.8290611,15.7221601 Z" id="Stroke-3" stroke="#FEFEFE"></path>
                    <path d="M67.0467754,12.4391617 C63.5066258,11.1364264 60.1964891,10.7023141 57.5763912,10.7023141 C55.6000259,10.7023141 52.0598763,10.8944556 52.0598763,13.2121127 C52.0598763,14.7560214 54.0366211,15.0474228 56.0129864,15.4333003 C60.3813345,16.302322 66.6326762,17.4607519 66.6326762,23.9792122 C66.6326762,27.5501739 64.8392585,31.0780832 62.816587,33.055307 C58.6793906,37.1118047 51.9213371,37.5451197 48.6119596,37.5451197 C42.9565259,37.5451197 38.5896961,36.6290592 35.6014257,35.7592402 L37.3018514,27.1658909 C41.2557207,28.904333 45.1181162,29.4337187 47.968227,29.4337187 C52.979928,29.4337187 53.9443882,27.9862793 53.9443882,26.7780202 C53.9443882,25.3780182 52.5650697,25.0902046 51.3239108,24.8003978 C44.841797,23.2544959 39.4634416,22.2890048 39.4634416,15.6740751 C39.4634416,9.44542168 44.4743836,2.5893186 57.300072,2.5893186 C60.5639025,2.5893186 64.6563109,2.87912539 68.7475807,3.74934302 L67.0467754,12.4391617 Z" id="Stroke-5" stroke="#FEFEFE"></path>
                    <path d="M122.763537,0 L121.171152,8.41437811 L109.713639,8.41437811 L111.305649,0 L122.763537,0 Z M109.214001,11.0605188 L120.671139,11.0605188 L115.80727,36.2504604 L104.349006,36.2504604 L109.214001,11.0605188 Z" id="Stroke-7" stroke="#FEFEFE"></path>
                    <path d="M135.7042,10.9376692 L134.582441,16.6857714 L134.761804,16.6857714 C136.197819,13.6896579 139.115431,10.3572744 143.065862,10.3572744 C143.783314,10.3572744 144.412196,10.5004783 144.860974,10.5970113 L142.93134,20.7449447 C142.392139,20.6001452 141.538683,20.357616 140.461765,20.357616 C136.691438,20.357616 134.088081,23.3533306 133.37063,27.0730428 L131.619247,36.2504604 L120.308266,36.2504604 L125.110671,10.9376692 L135.7042,10.9376692 Z" id="Stroke-9" stroke="#FEFEFE"></path>
                    <path d="M161.826529,21.1305938 L161.919325,20.6097573 C162.01212,20.1380783 162.057376,19.6184121 162.057376,19.1443923 C162.057376,16.7352793 160.676096,16.2647707 159.708972,16.2647707 C158.971935,16.2647707 156.713283,16.5468418 155.93175,20.6581346 L155.839715,21.1305938 L161.826529,21.1305938 Z M154.825813,26.1864151 C154.688141,27.414575 154.779796,30.1084901 159.662955,30.1084901 C162.425895,30.1084901 166.157861,29.304412 168.78351,28.4059202 L167.493124,34.8330826 C163.485054,35.9196219 159.847785,36.2504604 156.575612,36.2504604 C153.858689,36.2504604 149.759345,36.0132554 146.811195,33.5097286 C145.107033,32.0923508 143.633338,29.8248585 143.633338,26.2792683 C143.633338,20.5625504 147.733443,10.3572744 160.169526,10.3572744 C168.230161,10.3572744 170.671741,14.6554442 171.36162,16.639695 C171.7309,17.7277948 171.868952,18.909138 171.868952,20.0421039 C171.868952,21.6022728 171.638105,23.115625 171.270346,24.72066 L170.947084,26.1864151 L154.825813,26.1864151 Z" id="Stroke-11" stroke="#FEFEFE"></path>
                    <path d="M194.459183,35.0215201 C191.179717,36.062413 188.491765,36.2504604 185.89632,36.2504604 C183.619383,36.2504604 173.096587,36.0136456 173.096587,25.9971973 C173.096587,20.1384684 177.151829,10.3572744 190.76983,10.3572744 C194.1858,10.3572744 196.873376,10.9249278 198.87693,11.4906304 L197.510015,18.5786897 C195.460208,17.6329909 193.86654,17.4453336 192.820014,17.4453336 C187.855125,17.4453336 185.531935,21.4138353 185.531935,24.72066 C185.531935,28.9747439 189.677051,29.1627913 190.451323,29.1627913 C192.27212,29.1627913 194.231677,28.595138 195.870846,27.888985 L194.459183,35.0215201 Z" id="Stroke-13" stroke="#FEFEFE"></path>
                    <path d="M205.562386,11.254565 L206.697946,4.97454314 L218.882788,1.2946593 L217.019343,11.254565 L222.202002,11.254565 L220.792781,18.6102827 L215.609372,18.6102827 L214.244822,25.9198296 C214.155479,26.3122804 214.108555,26.7055411 214.108555,27.0979918 C214.108555,28.5705934 214.971956,29.3036541 216.200238,29.3036541 C216.835776,29.3036541 217.61021,29.156637 218.882788,28.8131919 L217.472441,36.2223704 C216.018924,36.7606232 213.562736,37.5451197 210.243897,37.5451197 C205.696401,37.5451197 202.105403,35.7306932 202.105403,31.1201057 C202.105403,29.8945578 202.241671,28.7658062 202.469909,27.5382333 L204.151664,18.6102827 L200.104565,18.6102827 L201.515287,11.254565 L205.562386,11.254565 Z" id="Stroke-15" stroke="#FEFEFE"></path>
                </g>
            </g>
        </g>
    </g>
</svg>