<svg xmlns="http://www.w3.org/2000/svg" width="134" height="42" viewBox="0 0 134 42"><g><g transform="rotate(-360 471.5 43)"><path fill="none" stroke="#fefefe" stroke-miterlimit="50" stroke-width="1.12" d="M6.308 12.703h12.83l-5.446 26.662H.86zM21.473 1l-1.782 8.903H6.871L8.652 1z"/></g><g transform="rotate(-360 471.5 43)"><path fill="none" stroke="#fefefe" stroke-miterlimit="50" stroke-width="1.12" d="M35.982 12.574v0l-1.256 6.082v0h.201c1.608-3.17 4.876-6.696 9.3-6.696.803 0 1.508.152 2.01.254l-2.16 10.737c-.605-.153-1.56-.41-2.766-.41-4.223 0-7.139 3.17-7.942 7.105l-1.961 9.71v0H18.74v0l5.378-26.782v0z"/></g><g transform="rotate(-360 471.5 43)"><path fill="none" stroke="#fefefe" stroke-miterlimit="50" stroke-width="1.12" d="M57.395 28.708c-.154 1.3-.052 4.15 5.417 4.15 3.094 0 7.274-.85 10.215-1.801l-1.446 6.8c-4.488 1.15-8.562 1.5-12.227 1.5-3.042 0-7.633-.251-10.935-2.9-1.909-1.5-3.559-3.899-3.559-7.65 0-6.05 4.592-16.847 18.52-16.847 9.027 0 11.761 4.548 12.534 6.647.413 1.151.568 2.401.568 3.6 0 1.65-.259 3.252-.67 4.95l-.362 1.551zm7.84-5.35l.104-.55c.104-.5.155-1.05.155-1.55 0-2.55-1.547-3.047-2.63-3.047-.826 0-3.355.298-4.23 4.648l-.104.5z"/></g><g transform="rotate(-360 471.5 43)"><path fill="none" stroke="#fefefe" stroke-miterlimit="50" stroke-width="1.12" d="M101.785 38.056c-3.673 1.102-6.683 1.3-9.59 1.3-2.55 0-14.335-.25-14.335-10.848 0-6.199 4.542-16.548 19.793-16.548 3.825 0 6.835.6 9.08 1.2l-1.532 7.499c-2.295-1-4.08-1.2-5.252-1.2-5.56 0-8.162 4.2-8.162 7.698 0 4.502 4.642 4.7 5.51 4.7 2.038 0 4.233-.6 6.069-1.347z"/></g><g transform="rotate(-360 471.5 43)"><path fill="none" stroke="#fefefe" stroke-miterlimit="50" stroke-width="1.12" d="M114.212 12.908v0l1.272-6.644v0L129.13 2.37v0l-2.087 10.538v0h5.805v0l-1.579 7.783v0h-5.805v0l-1.528 7.734c-.1.415-.152.831-.152 1.247 0 1.558.966 2.333 2.342 2.333.712 0 1.58-.155 3.004-.519l-1.58 7.84a23.93 23.93 0 0 1-8.095 1.4c-5.093 0-9.114-1.92-9.114-6.799 0-1.296.152-2.49.408-3.79l1.883-9.446v0H108.1v0l1.58-7.783v0z"/></g></g></svg>