<svg xmlns="http://www.w3.org/2000/svg" width="79" height="39" viewBox="0 0 79 39"><g><g transform="rotate(-360 471.5 43)"><path fill="none" stroke="#fefefe" stroke-miterlimit="50" stroke-width="1.12" d="M42.246 14.635c0 7.153-4.509 23.09-24.696 23.09C4.792 37.726 1 30.318 1 23.83 1 16.628 5.663.74 25.389.74c13.577 0 16.857 8.072 16.857 13.895zm-24.95.154c-.873 2.3-1.796 6.59-1.796 9.4 0 4.65 3.025 4.954 4.103 4.954 1.794 0 4.666-1.023 6.358-5.466.82-2.094 1.794-6.845 1.794-9.5 0-4.342-2.82-4.853-4.1-4.853-1.49 0-4.463.662-6.36 5.465z"/></g><g transform="rotate(-360 471.5 43)"><path fill="none" stroke="#fefefe" stroke-miterlimit="50" stroke-width="1.12" d="M76.087 11.162c-3.965-1.379-7.672-1.838-10.607-1.838-2.213 0-6.178.203-6.178 2.656 0 1.633 2.214 1.941 4.428 2.35 4.892.92 11.893 2.145 11.893 9.042 0 3.778-2.009 7.511-4.274 9.603-4.633 4.292-12.202 4.75-15.908 4.75-6.334 0-11.224-.969-14.571-1.889l1.904-9.092c4.428 1.839 8.754 2.4 11.946 2.4 5.613 0 6.693-1.532 6.693-2.81 0-1.482-1.545-1.787-2.935-2.093-7.26-1.636-13.283-2.657-13.283-9.656C45.195 7.995 50.807.74 65.171.74c3.655 0 8.239.307 12.82 1.227z"/></g></g></svg>