<svg xmlns="http://www.w3.org/2000/svg" width="162" height="28" viewBox="0 0 162 28"><g><g transform="rotate(-360 81 14)"><g><path fill="#fefefe" d="M66.344 3h-11.76l-1.493 7.521h8.667l.642-3.345 7.765 7.046-10.544 6.975.722-3.356h-8.669L50 25.872h11.76c1.937 0 6.07-.228 9.362-3.267 2.842-2.614 4.456-7.057 4.456-10.619C75.578 8.13 73.964 3 66.344 3"/></g><g><path fill="none" stroke="#fefefe" stroke-miterlimit="50" stroke-width=".72" d="M27.46 11.924c0 4.593-2.893 14.828-15.843 14.828C3.432 26.752 1 21.994 1 17.828 1 13.203 3.991 3 16.646 3c8.71 0 10.814 5.184 10.814 8.924zm-16.31-.414c-.559 1.476-1.15 4.232-1.15 6.036 0 2.987 1.939 3.182 2.63 3.182 1.15 0 2.99-.657 4.075-3.51.526-1.345 1.15-4.396 1.15-6.102C17.855 8.328 16.048 8 15.226 8c-.954 0-2.86.425-4.076 3.51z"/></g><g><path fill="none" stroke="#fefefe" stroke-miterlimit="50" stroke-width=".72" d="M49.592 9.693c-2.544-.885-4.922-1.18-6.804-1.18-1.42 0-3.963.13-3.963 1.705 0 1.05 1.42 1.247 2.84 1.51 3.138.59 7.63 1.377 7.63 5.806 0 2.427-1.29 4.824-2.742 6.167-2.973 2.757-7.828 3.051-10.206 3.051-4.063 0-7.2-.622-9.347-1.213l1.222-5.84a20.331 20.331 0 0 0 7.663 1.542c3.6 0 4.293-.984 4.293-1.805 0-.951-.99-1.147-1.882-1.344-4.657-1.05-8.521-1.706-8.521-6.201 0-4.232 3.6-8.891 12.814-8.891 2.345 0 5.285.197 8.225.788z"/></g><g><path fill="none" stroke="#fefefe" stroke-miterlimit="50" stroke-width=".72" d="M79.495 9h8.232l-3.495 17.116H76zm9.88-8l-1.143 5.718H80L81.144 1z"/></g><g><path fill="none" stroke="#fefefe" stroke-miterlimit="50" stroke-width=".72" d="M98.061 8.394v0l-.806 3.906v0h.13c1.03-2.036 3.127-4.3 5.965-4.3.516 0 .967.097 1.29.163l-1.387 6.895c-.387-.098-1-.263-1.774-.263-2.709 0-4.579 2.036-5.094 4.563l-1.259 6.236v0H87v0l3.45-17.2v0z"/></g><g><path fill="none" stroke="#fefefe" stroke-miterlimit="50" stroke-width=".72" d="M112.041 18.756c-.099.834-.033 2.665 3.475 2.665 1.985 0 4.667-.547 6.553-1.157l-.927 4.367c-2.88.738-5.493.963-7.844.963-1.952 0-4.897-.161-7.015-1.862-1.224-.963-2.283-2.504-2.283-4.913C104 14.934 106.946 8 115.88 8c5.792 0 7.546 2.92 8.041 4.269.266.74.365 1.542.365 2.312 0 1.06-.166 2.088-.43 3.179l-.233.996zm5.26-3.45l.067-.354c.067-.32.1-.673.1-.995 0-1.637-.993-1.957-1.688-1.957-.53 0-2.152.192-2.714 2.985l-.066.321z"/></g><g><path fill="none" stroke="#fefefe" stroke-miterlimit="50" stroke-width=".72" d="M140.348 24.76c-2.356.706-4.287.834-6.152.834-1.636 0-9.196-.16-9.196-6.967C125 14.647 127.913 8 137.697 8c2.454 0 4.385.386 5.825.77l-.982 4.816c-1.473-.642-2.618-.77-3.37-.77-3.567 0-5.236 2.697-5.236 4.944 0 2.89 2.978 3.018 3.534 3.018 1.309 0 2.716-.386 3.894-.865z"/></g><g><path fill="none" stroke="#fefefe" stroke-miterlimit="50" stroke-width=".72" d="M148.921 8.768v0l.816-4.268v0l8.754-2.5v0l-1.339 6.768v0h3.724v0l-1.013 4.998v0h-3.724v0l-.98 4.967a3.415 3.415 0 0 0-.098.8c0 1 .62 1.499 1.503 1.499.456 0 1.013-.1 1.927-.333l-1.013 5.034a15.337 15.337 0 0 1-5.193.899c-3.268 0-5.848-1.233-5.848-4.366 0-.833.098-1.6.262-2.434l1.209-6.066v0H145v0l1.014-4.998v0z"/></g></g></g></svg>