<svg xmlns="http://www.w3.org/2000/svg" width="251" height="42" viewBox="0 0 251 42"><g><g transform="rotate(-360 125.5 21)"><g><path fill="#fefefe" d="M103.467 3.74h-18.33l-2.33 11.712H96.32l1-5.209 12.105 10.971-16.437 10.861 1.126-5.226H80.6l-2.61 12.507h18.331c3.02 0 9.462-.356 14.595-5.088 4.429-4.07 6.945-10.99 6.945-16.536 0-6.004-2.516-13.992-14.394-13.992"/></g><g><path fill="none" stroke="#fefefe" stroke-miterlimit="50" stroke-width="1.12" d="M42.246 17.635c0 7.153-4.509 23.09-24.696 23.09C4.792 40.726 1 33.318 1 26.83 1 19.628 5.663 3.74 25.389 3.74c13.577 0 16.857 8.072 16.857 13.895zm-24.95.154c-.873 2.3-1.796 6.59-1.796 9.4 0 4.65 3.025 4.954 4.103 4.954 1.794 0 4.666-1.023 6.358-5.466.82-2.094 1.794-6.845 1.794-9.5 0-4.342-2.82-4.853-4.1-4.853-1.49 0-4.463.662-6.36 5.465z"/></g><g><path fill="none" stroke="#fefefe" stroke-miterlimit="50" stroke-width="1.12" d="M76.087 14.162c-3.965-1.379-7.672-1.838-10.607-1.838-2.213 0-6.178.203-6.178 2.656 0 1.633 2.214 1.941 4.428 2.35 4.892.92 11.893 2.145 11.893 9.042 0 3.778-2.009 7.511-4.274 9.603-4.633 4.292-12.202 4.75-15.908 4.75-6.334 0-11.224-.969-14.571-1.889l1.904-9.092c4.428 1.839 8.754 2.4 11.946 2.4 5.613 0 6.693-1.532 6.693-2.81 0-1.482-1.545-1.787-2.935-2.093-7.26-1.636-13.283-2.657-13.283-9.656 0-6.59 5.612-13.845 19.976-13.845 3.655 0 8.239.307 12.82 1.227z"/></g><g><path fill="none" stroke="#fefefe" stroke-miterlimit="50" stroke-width="1.12" d="M123.308 12.703h12.83l-5.446 26.662H117.86zM138.473 1l-1.782 8.903h-12.82L125.652 1z"/></g><g><path fill="none" stroke="#fefefe" stroke-miterlimit="50" stroke-width="1.12" d="M152.982 12.574v0l-1.256 6.082v0h.201c1.608-3.17 4.876-6.696 9.3-6.696.803 0 1.508.152 2.01.254l-2.16 10.737c-.605-.153-1.56-.41-2.766-.41-4.223 0-7.139 3.17-7.942 7.105l-1.961 9.71v0H135.74v0l5.378-26.782v0z"/></g><g><path fill="none" stroke="#fefefe" stroke-miterlimit="50" stroke-width="1.12" d="M174.395 28.708c-.154 1.3-.052 4.15 5.417 4.15 3.094 0 7.274-.85 10.215-1.801l-1.446 6.8c-4.488 1.15-8.562 1.5-12.227 1.5-3.042 0-7.633-.251-10.935-2.9-1.909-1.5-3.559-3.899-3.559-7.65 0-6.05 4.592-16.847 18.52-16.847 9.027 0 11.761 4.548 12.534 6.647.413 1.151.568 2.401.568 3.6 0 1.65-.259 3.252-.67 4.95l-.362 1.551zm7.84-5.35l.104-.55c.104-.5.155-1.05.155-1.55 0-2.55-1.547-3.047-2.63-3.047-.826 0-3.355.298-4.23 4.648l-.104.5z"/></g><g><path fill="none" stroke="#fefefe" stroke-miterlimit="50" stroke-width="1.12" d="M218.785 38.056c-3.673 1.102-6.683 1.3-9.59 1.3-2.55 0-14.335-.25-14.335-10.848 0-6.199 4.542-16.548 19.793-16.548 3.826 0 6.835.6 9.08 1.2l-1.532 7.499c-2.295-1-4.08-1.2-5.252-1.2-5.56 0-8.162 4.2-8.162 7.698 0 4.502 4.642 4.7 5.51 4.7 2.038 0 4.233-.6 6.069-1.347z"/></g><g><path fill="none" stroke="#fefefe" stroke-miterlimit="50" stroke-width="1.12" d="M231.212 12.908v0l1.272-6.644v0L246.13 2.37v0l-2.087 10.538v0h5.805v0l-1.579 7.783v0h-5.805v0l-1.528 7.734c-.1.415-.152.831-.152 1.247 0 1.558.966 2.333 2.342 2.333.712 0 1.58-.155 3.004-.519l-1.58 7.84a23.93 23.93 0 0 1-8.095 1.4c-5.093 0-9.114-1.92-9.114-6.799 0-1.296.152-2.49.408-3.79l1.883-9.446v0H225.1v0l1.58-7.783v0z"/></g></g></g></svg>