<svg width="1850" height="1080" viewBox="0 0 1850 1080" fill="none" xmlns="http://www.w3.org/2000/svg">
<path opacity="0.210156" fill-rule="evenodd" clip-rule="evenodd" d="M1198 1529C1383.02 1529 1533 1379.02 1533 1194C1533 1008.98 1383.02 859 1198 859C1012.98 859 863 1008.98 863 1194C863 1379.02 1012.98 1529 1198 1529Z" stroke="#8B1D5E" stroke-width="40"/>
<path opacity="0.179688" fill-rule="evenodd" clip-rule="evenodd" d="M1312.5 223C1387.89 223 1449 161.887 1449 86.5C1449 11.1131 1387.89 -50 1312.5 -50C1237.11 -50 1176 11.1131 1176 86.5C1176 161.887 1237.11 223 1312.5 223Z" stroke="#8B1D5E" stroke-width="40"/>
<path opacity="0.179688" fill-rule="evenodd" clip-rule="evenodd" d="M1850 1080C1958.25 1080 2046 988.218 2046 875C2046 761.782 1958.25 670 1850 670C1741.75 670 1654 761.782 1654 875C1654 988.218 1741.75 1080 1850 1080Z" stroke="#8B1D5E" stroke-width="40"/>
<rect opacity="0.179688" x="445" y="140" width="251" height="251" fill="#8B1D5E" style="mix-blend-mode:multiply"/>
<rect opacity="0.179688" x="670" y="794" width="162" height="162" fill="#8B1D5E" style="mix-blend-mode:multiply"/>
<rect opacity="0.179688" y="265" width="550" height="550" fill="#8B1D5E" style="mix-blend-mode:multiply"/>
</svg>
